<svg xmlns="http://www.w3.org/2000/svg" viewBox="33 0 104 162" width="104" height="162">
<path d="M 78.19 120.83 L 82.08 120.80 L 83.46 120.77 L 83.98 120.76 L 84.64 120.80 L 88.81 120.78 L 88.84 122.39 L 88.83 123.20 L 88.81 130.57 L 88.81 131.63 L 85.45 131.55 L 84.75 131.54 L 78.24 131.60 L 78.21 126.75 L 78.21 125.61 L 78.21 125.27 L 78.19 120.83 Z" fill="black" stroke="black" stroke-width="0.5" stroke-linejoin="round"></path>
<path d="M 95.14 96.56 L 97.04 96.50 L 98.20 96.47 L 98.93 96.44 L 99.21 96.43 L 101.61 96.37 L 106.52 96.34 L 106.46 100.10 L 106.45 100.64 L 106.46 104.43 L 104.06 104.49 L 103.52 104.50 L 103.25 104.56 L 103.28 106.73 L 102.05 106.94 L 101.90 107.18 L 101.53 107.74 L 100.25 107.77 L 95.30 107.93 L 95.29 107.41 L 95.27 106.32 L 95.32 106.08 L 95.32 105.39 L 95.30 104.58 L 95.29 103.63 L 95.26 101.98 L 95.23 100.15 L 95.20 99.81 L 95.18 98.20 L 95.14 96.56 Z" fill="black" stroke="black" stroke-width="0.5" stroke-linejoin="round"></path>
<path d="M 109.01 77.28 L 109.01 77.04 L 109.57 77.05 L 109.59 74.35 L 109.59 72.72 L 109.59 70.58 L 109.59 69.50 L 112.32 69.51 L 113.39 69.52 L 114.75 69.53 L 116.63 69.52 L 119.86 69.51 L 119.88 72.19 L 120.23 72.18 L 120.24 73.26 L 120.25 74.30 L 120.24 77.01 L 119.68 77.02 L 119.67 78.54 L 119.67 80.16 L 117.39 80.19 L 113.24 80.20 L 112.47 80.20 L 109.01 80.23 L 109.01 77.28 Z" fill="black" stroke="black" stroke-width="0.5" stroke-linejoin="round"></path>
<path d="M 122.09 111.86 L 122.18 111.18 L 122.67 110.87 L 122.61 111.61 L 123.19 111.65 L 123.60 111.03 L 124.28 111.15 L 124.29 110.81 L 124.80 110.15 L 125.46 109.91 L 125.84 110.18 L 126.01 109.38 L 127.25 109.45 L 128.44 108.56 L 128.82 108.77 L 129.40 108.12 L 129.63 108.32 L 130.00 108.84 L 130.19 109.14 L 130.21 109.23 L 130.28 109.36 L 130.49 109.58 L 130.56 109.70 L 130.67 109.94 L 130.75 110.19 L 130.75 110.21 L 130.77 110.39 L 130.69 110.69 L 130.62 110.81 L 129.78 111.67 L 129.61 111.87 L 129.41 112.20 L 129.37 112.36 L 129.38 112.46 L 129.43 112.62 L 129.61 112.92 L 129.57 112.92 L 124.70 112.88 L 124.62 112.84 L 121.96 112.84 L 122.09 111.86 Z" fill="black" stroke="black" stroke-width="0.5" stroke-linejoin="round"></path>
<path d="M 66.57 64.42 L 72.71 64.42 L 77.83 64.44 L 77.83 65.76 L 77.83 71.96 L 77.84 72.86 L 77.85 75.20 L 77.85 77.34 L 74.02 77.32 L 71.06 77.29 L 71.00 77.29 L 68.93 77.27 L 66.60 77.25 L 66.61 74.08 L 66.64 74.06 L 66.61 71.27 L 66.60 70.91 L 66.58 70.91 L 66.59 68.29 L 66.59 66.03 L 66.57 64.42 Z" fill="black" stroke="black" stroke-width="0.5" stroke-linejoin="round"></path>
<path d="M 57.07 73.01 L 56.85 71.38 L 57.35 70.18 L 57.64 67.84 L 57.66 67.64 L 57.71 67.35 L 56.75 66.23 L 57.28 65.25 L 59.05 64.57 L 60.22 63.24 L 60.70 62.94 L 60.85 62.83 L 61.21 62.07 L 61.38 61.88 L 61.86 61.55 L 61.96 61.44 L 62.12 61.29 L 62.20 60.97 L 64.37 59.99 L 65.46 59.78 L 66.58 58.82 L 66.57 61.22 L 66.57 64.42 L 66.59 66.03 L 66.59 68.29 L 66.58 70.91 L 66.60 70.91 L 66.61 71.27 L 66.64 74.06 L 66.61 74.08 L 57.27 74.10 L 56.72 73.85 L 57.07 73.01 Z" fill="black" stroke="black" stroke-width="0.5" stroke-linejoin="round"></path>
<path d="M 71.16 36.01 L 71.16 33.36 L 71.18 29.08 L 75.35 29.11 L 76.10 29.09 L 78.44 29.08 L 80.48 29.09 L 81.03 29.09 L 84.32 29.11 L 84.31 32.33 L 84.28 38.76 L 84.16 38.77 L 81.07 38.73 L 80.49 38.72 L 75.56 38.67 L 71.16 38.67 L 71.16 36.01 Z" fill="black" stroke="black" stroke-width="0.5" stroke-linejoin="round"></path>
<path d="M 62.38 99.70 L 62.38 98.09 L 62.40 93.18 L 62.40 92.80 L 62.42 90.05 L 63.52 90.07 L 63.55 86.85 L 65.67 86.90 L 65.77 86.90 L 68.83 86.94 L 68.78 91.60 L 68.78 91.77 L 70.90 91.79 L 70.84 95.57 L 70.83 96.24 L 70.69 96.63 L 67.67 96.62 L 67.65 103.06 L 65.54 103.02 L 62.37 102.92 L 62.38 99.70 Z" fill="black" stroke="black" stroke-width="0.5" stroke-linejoin="round"></path>
<path d="M 101.46 65.25 L 101.49 64.27 L 101.52 62.66 L 101.52 62.20 L 101.53 61.59 L 101.48 58.38 L 106.89 58.34 L 109.26 58.33 L 109.53 58.34 L 109.57 61.04 L 109.58 61.58 L 109.61 64.27 L 109.61 65.74 L 109.60 66.83 L 109.60 67.10 L 109.60 67.93 L 109.60 68.95 L 109.59 69.50 L 109.59 70.58 L 109.59 72.72 L 109.59 74.35 L 106.84 74.36 L 103.62 74.39 L 103.08 74.40 L 101.47 74.43 L 101.47 73.99 L 101.48 72.27 L 101.47 71.19 L 101.45 68.52 L 101.46 65.25 Z" fill="black" stroke="black" stroke-width="0.5" stroke-linejoin="round"></path>
<path d="M 107.67 35.35 L 109.87 35.32 L 116.42 35.24 L 116.43 35.38 L 116.42 36.90 L 116.41 38.50 L 116.44 44.96 L 116.45 48.19 L 113.21 48.22 L 108.27 48.24 L 107.82 48.24 L 107.80 46.63 L 107.79 45.02 L 107.73 38.58 L 107.72 38.58 L 107.67 35.35 Z" fill="black" stroke="black" stroke-width="0.5" stroke-linejoin="round"></path>
<path d="M 120.44 16.01 L 122.41 15.99 L 128.86 15.92 L 131.48 15.87 L 131.48 15.87 L 131.49 16.97 L 131.49 16.97 L 131.49 17.42 L 131.50 19.02 L 131.51 19.36 L 131.50 19.71 L 131.50 19.71 L 131.50 20.24 L 131.50 20.36 L 131.50 20.37 L 131.51 21.86 L 131.51 22.23 L 131.51 23.44 L 131.52 25.42 L 127.00 25.56 L 125.37 25.60 L 123.73 25.63 L 122.11 25.65 L 120.49 25.68 L 120.45 23.55 L 120.47 21.41 L 120.47 20.87 L 120.46 19.28 L 120.44 16.01 Z" fill="black" stroke="black" stroke-width="0.5" stroke-linejoin="round"></path>
<path d="M 101.41 48.29 L 107.82 48.24 L 108.27 48.24 L 113.21 48.22 L 113.26 51.42 L 113.29 54.66 L 113.34 58.35 L 110.24 58.37 L 109.53 58.34 L 109.26 58.33 L 106.89 58.34 L 101.48 58.38 L 101.48 57.33 L 101.42 52.00 L 101.44 51.47 L 101.41 48.29 Z" fill="black" stroke="black" stroke-width="0.5" stroke-linejoin="round"></path>
<path d="M 92.79 35.58 L 93.34 35.58 L 99.09 35.47 L 99.14 37.55 L 99.21 41.95 L 99.22 43.83 L 99.22 43.84 L 99.29 48.32 L 101.41 48.29 L 101.44 51.47 L 97.19 51.53 L 93.95 51.56 L 92.89 51.58 L 92.88 48.94 L 92.86 48.37 L 92.84 47.31 L 92.87 44.93 L 92.78 44.83 L 92.80 42.22 L 92.81 41.73 L 92.77 38.77 L 92.79 35.58 Z" fill="black" stroke="black" stroke-width="0.5" stroke-linejoin="round"></path>
<path d="M 90.68 57.53 L 90.86 57.48 L 92.34 57.45 L 93.96 57.42 L 97.72 57.36 L 98.26 57.36 L 101.48 57.33 L 101.48 58.38 L 101.53 61.59 L 101.52 62.20 L 101.52 62.66 L 101.49 64.27 L 98.52 64.29 L 97.68 64.30 L 93.93 64.33 L 90.68 64.38 L 90.68 60.95 L 90.67 58.56 L 90.68 57.53 Z" fill="black" stroke="black" stroke-width="0.5" stroke-linejoin="round"></path>
<path d="M 99.12 35.29 L 99.11 33.85 L 103.36 33.83 L 106.53 33.71 L 106.56 35.37 L 107.67 35.35 L 107.72 38.58 L 107.73 38.58 L 107.79 45.02 L 107.80 46.63 L 107.82 48.24 L 101.41 48.29 L 99.29 48.32 L 99.22 43.84 L 99.22 43.83 L 99.21 41.95 L 99.14 37.55 L 99.09 35.47 L 99.12 35.29 Z" fill="black" stroke="black" stroke-width="0.5" stroke-linejoin="round"></path>
<path d="M 117.48 89.87 L 122.30 89.82 L 123.55 89.83 L 124.92 89.84 L 125.30 89.91 L 127.45 89.91 L 131.18 90.00 L 131.18 90.40 L 131.18 90.40 L 131.17 91.64 L 131.12 94.80 L 131.12 94.80 L 131.07 97.84 L 131.07 98.00 L 127.96 97.97 L 125.87 97.94 L 125.83 97.94 L 124.08 97.92 L 124.01 97.82 L 120.82 97.83 L 120.56 97.87 L 120.03 97.87 L 119.76 97.88 L 117.53 99.36 L 117.53 97.56 L 117.50 93.07 L 117.50 92.53 L 117.48 89.87 Z" fill="black" stroke="black" stroke-width="0.5" stroke-linejoin="round"></path>
<path d="M 62.36 108.12 L 62.36 104.80 L 62.36 103.48 L 62.37 102.92 L 65.54 103.02 L 67.65 103.06 L 68.18 103.06 L 68.42 103.05 L 71.51 103.06 L 74.03 103.10 L 78.19 103.14 L 78.21 106.06 L 78.21 109.54 L 78.19 112.78 L 71.91 112.80 L 68.19 112.86 L 66.39 112.81 L 65.51 112.68 L 62.36 112.66 L 62.36 108.12 Z" fill="black" stroke="black" stroke-width="0.5" stroke-linejoin="round"></path>
<path d="M 88.77 119.11 L 89.33 119.00 L 89.76 117.98 L 90.36 117.75 L 90.84 117.83 L 91.21 117.41 L 91.96 117.61 L 92.35 117.25 L 93.74 118.03 L 94.67 117.91 L 94.97 117.26 L 95.44 117.58 L 95.75 117.43 L 96.23 117.88 L 96.84 118.27 L 98.02 117.82 L 98.23 118.40 L 98.68 117.97 L 99.03 118.36 L 99.31 118.03 L 99.95 118.65 L 100.17 118.26 L 100.67 119.24 L 100.74 119.06 L 100.81 124.94 L 101.87 124.90 L 101.89 125.46 L 101.89 125.98 L 101.36 125.98 L 101.36 127.04 L 100.84 127.05 L 100.84 127.59 L 100.31 127.62 L 99.42 127.63 L 98.79 127.65 L 98.81 128.13 L 97.83 128.14 L 97.77 128.66 L 97.72 130.73 L 97.17 130.71 L 96.64 130.75 L 91.54 130.59 L 90.33 130.57 L 88.81 130.57 L 88.83 123.20 L 88.84 122.39 L 88.81 120.78 L 88.77 119.11 Z" fill="black" stroke="black" stroke-width="0.5" stroke-linejoin="round"></path>
<path d="M 113.42 103.84 L 113.46 102.04 L 113.60 101.93 L 116.73 99.90 L 117.53 99.36 L 119.76 97.88 L 120.03 97.87 L 120.56 97.87 L 120.82 97.83 L 124.01 97.82 L 124.08 97.92 L 123.62 101.06 L 123.53 101.65 L 123.11 104.68 L 122.73 107.40 L 122.18 111.18 L 122.09 111.86 L 120.19 111.90 L 120.18 112.44 L 119.29 112.44 L 115.51 112.45 L 113.32 112.47 L 113.42 103.84 Z" fill="black" stroke="black" stroke-width="0.5" stroke-linejoin="round"></path>
<path d="M 84.32 17.85 L 85.49 17.84 L 87.67 17.80 L 88.21 17.79 L 88.99 17.83 L 90.94 17.76 L 92.32 17.76 L 93.14 17.75 L 93.96 17.74 L 95.88 17.75 L 95.89 19.35 L 95.90 21.04 L 95.91 21.57 L 95.96 25.31 L 96.00 27.14 L 96.04 29.05 L 95.37 29.06 L 91.07 29.10 L 90.74 29.08 L 87.73 29.09 L 84.32 29.11 L 84.33 25.33 L 84.33 24.28 L 84.34 21.97 L 84.34 21.60 L 84.33 19.46 L 84.32 17.85 Z" fill="black" stroke="black" stroke-width="0.5" stroke-linejoin="round"></path>
<path d="M 66.49 51.57 L 69.43 51.60 L 72.91 51.62 L 75.69 51.60 L 77.78 51.61 L 77.84 51.82 L 77.85 54.81 L 77.86 56.40 L 77.86 58.00 L 77.85 60.69 L 77.85 61.23 L 77.83 64.44 L 72.71 64.42 L 66.57 64.42 L 66.57 61.22 L 66.58 58.82 L 66.56 55.89 L 66.56 54.94 L 66.54 54.79 L 66.49 51.57 Z" fill="black" stroke="black" stroke-width="0.5" stroke-linejoin="round"></path>
<path d="M 54.26 54.74 L 54.26 54.22 L 54.26 54.20 L 54.26 52.60 L 54.26 52.59 L 54.27 46.88 L 54.27 45.15 L 58.36 45.16 L 61.61 45.16 L 63.20 45.16 L 66.40 45.16 L 66.45 45.33 L 66.49 51.57 L 66.54 54.79 L 60.08 54.76 L 58.47 54.75 L 54.26 54.75 L 54.26 54.74 Z" fill="black" stroke="black" stroke-width="0.5" stroke-linejoin="round"></path>
<path d="M 86.95 51.63 L 87.73 51.63 L 91.27 51.60 L 92.89 51.58 L 93.95 51.56 L 97.19 51.53 L 101.44 51.47 L 101.42 52.00 L 101.48 57.33 L 98.26 57.36 L 97.72 57.36 L 93.96 57.42 L 92.34 57.45 L 90.86 57.48 L 90.68 57.53 L 90.67 58.56 L 89.60 58.55 L 89.60 58.02 L 88.79 58.01 L 88.79 56.41 L 87.45 56.41 L 86.91 56.41 L 86.95 51.63 Z" fill="black" stroke="black" stroke-width="0.5" stroke-linejoin="round"></path>
<path d="M 54.25 29.55 L 54.25 29.53 L 54.26 29.39 L 54.26 29.31 L 56.54 29.00 L 57.01 29.23 L 57.48 29.45 L 59.74 28.69 L 61.09 27.49 L 61.37 27.37 L 61.37 29.02 L 61.37 30.11 L 61.36 34.96 L 61.35 38.70 L 61.56 38.70 L 61.58 39.26 L 61.61 45.16 L 58.36 45.16 L 54.27 45.15 L 54.27 45.15 L 54.27 43.08 L 54.28 40.91 L 54.28 40.81 L 54.27 39.88 L 54.27 39.84 L 54.26 39.34 L 54.27 39.29 L 54.27 38.89 L 54.27 38.69 L 54.26 35.06 L 54.26 35.05 L 54.26 34.52 L 54.25 32.22 L 54.25 30.95 L 54.25 30.95 L 54.25 30.28 L 54.25 29.93 L 54.25 29.75 L 54.25 29.55 Z" fill="black" stroke="black" stroke-width="0.5" stroke-linejoin="round"></path>
<path d="M 57.27 74.10 L 66.61 74.08 L 66.60 77.25 L 68.93 77.27 L 68.90 79.69 L 68.89 80.49 L 68.83 86.87 L 68.83 86.94 L 65.77 86.90 L 65.67 86.90 L 63.55 86.85 L 60.92 86.82 L 60.28 86.81 L 58.35 86.82 L 58.37 86.47 L 58.06 85.75 L 57.96 85.16 L 58.13 84.29 L 58.37 83.67 L 58.35 82.51 L 58.57 80.01 L 58.27 78.99 L 58.26 78.50 L 58.80 78.15 L 59.16 77.44 L 58.50 77.02 L 58.73 76.39 L 58.42 75.90 L 57.71 75.64 L 56.91 74.88 L 57.27 74.10 Z" fill="black" stroke="black" stroke-width="0.5" stroke-linejoin="round"></path>
<path d="M 117.39 80.19 L 119.67 80.16 L 120.74 80.16 L 120.71 81.24 L 120.69 82.85 L 122.31 82.87 L 122.45 82.87 L 124.96 82.88 L 124.95 85.82 L 124.92 89.84 L 123.55 89.83 L 122.30 89.82 L 117.48 89.87 L 117.44 86.65 L 117.39 80.19 Z" fill="black" stroke="black" stroke-width="0.5" stroke-linejoin="round"></path>
<path d="M 107.37 16.12 L 112.28 16.04 L 113.52 16.04 L 113.93 16.04 L 116.93 16.02 L 116.94 16.02 L 120.44 16.01 L 120.46 19.28 L 120.47 20.87 L 120.47 21.41 L 120.45 23.55 L 120.49 25.68 L 117.21 25.69 L 116.11 25.67 L 113.64 25.65 L 110.70 25.61 L 110.71 25.07 L 110.73 24.54 L 107.45 24.56 L 107.41 22.68 L 107.40 20.87 L 107.40 20.06 L 107.40 19.31 L 107.37 16.12 Z" fill="black" stroke="black" stroke-width="0.5" stroke-linejoin="round"></path>
<path d="M 100.74 119.06 L 100.93 119.41 L 102.01 118.76 L 102.33 118.42 L 102.58 117.76 L 103.10 117.40 L 103.38 116.37 L 104.02 116.29 L 105.14 115.47 L 106.54 116.08 L 106.55 118.98 L 107.61 119.23 L 107.61 119.67 L 107.62 120.04 L 108.67 120.05 L 108.69 121.12 L 109.74 121.12 L 109.77 123.80 L 105.41 123.82 L 104.66 123.81 L 104.22 123.83 L 103.77 123.84 L 103.43 123.85 L 102.64 124.94 L 102.64 125.45 L 101.89 125.46 L 101.87 124.90 L 100.81 124.94 L 100.74 119.06 Z" fill="black" stroke="black" stroke-width="0.5" stroke-linejoin="round"></path>
<path d="M 71.35 123.01 L 71.37 119.95 L 71.38 116.01 L 71.91 116.00 L 71.91 115.53 L 71.91 112.80 L 78.19 112.78 L 78.19 113.08 L 78.18 119.53 L 78.19 120.83 L 78.21 125.27 L 78.21 125.61 L 78.21 126.75 L 75.01 126.76 L 73.81 126.74 L 73.62 127.16 L 72.63 127.91 L 71.64 127.87 L 71.35 127.52 L 71.35 123.01 Z" fill="black" stroke="black" stroke-width="0.5" stroke-linejoin="round"></path>
<path d="M 106.46 28.85 L 106.88 28.85 L 107.42 28.85 L 107.45 27.53 L 107.45 24.82 L 107.45 24.56 L 110.73 24.54 L 110.71 25.07 L 110.70 25.61 L 113.64 25.65 L 116.11 25.67 L 117.21 25.69 L 117.16 26.21 L 117.15 28.82 L 116.34 28.83 L 116.34 29.06 L 116.38 32.13 L 116.39 33.26 L 116.42 35.24 L 109.87 35.32 L 107.67 35.35 L 106.56 35.37 L 106.53 33.71 L 106.46 28.85 Z" fill="black" stroke="black" stroke-width="0.5" stroke-linejoin="round"></path>
<path d="M 86.75 96.72 L 87.29 96.71 L 90.43 96.65 L 90.92 96.64 L 95.14 96.56 L 95.18 98.20 L 95.20 99.81 L 95.23 100.15 L 95.26 101.98 L 95.29 103.63 L 95.30 104.58 L 95.32 105.39 L 95.32 106.08 L 95.27 106.32 L 95.29 107.41 L 88.54 107.46 L 87.07 107.48 L 87.10 105.95 L 87.01 100.47 L 87.01 100.47 L 86.79 99.99 L 86.75 96.72 Z" fill="black" stroke="black" stroke-width="0.5" stroke-linejoin="round"></path>
<path d="M 107.97 80.24 L 109.01 80.23 L 112.47 80.20 L 113.24 80.20 L 117.39 80.19 L 117.44 86.65 L 117.48 89.87 L 117.50 92.53 L 113.41 92.53 L 110.21 92.56 L 109.69 92.53 L 108.09 92.55 L 108.05 89.87 L 107.99 86.17 L 107.99 85.04 L 107.99 83.75 L 107.98 83.48 L 107.97 80.24 Z" fill="black" stroke="black" stroke-width="0.5" stroke-linejoin="round"></path>
<path d="M 66.36 41.43 L 69.03 41.42 L 69.58 41.42 L 69.56 39.80 L 69.55 38.68 L 71.16 38.67 L 75.56 38.67 L 80.49 38.72 L 81.07 38.73 L 81.10 41.90 L 81.06 45.19 L 76.35 45.13 L 76.08 45.51 L 76.36 45.85 L 76.15 46.75 L 75.94 47.25 L 76.51 47.26 L 76.05 47.83 L 75.60 47.84 L 75.65 48.79 L 75.67 50.42 L 75.69 51.60 L 72.91 51.62 L 69.43 51.60 L 66.49 51.57 L 66.45 45.33 L 66.40 45.16 L 66.36 41.43 Z" fill="black" stroke="black" stroke-width="0.5" stroke-linejoin="round"></path>
<path d="M 88.54 107.46 L 95.29 107.41 L 95.30 107.93 L 100.25 107.77 L 101.53 107.74 L 101.90 107.18 L 102.05 106.94 L 103.28 106.73 L 103.30 108.24 L 103.32 110.19 L 103.35 112.86 L 103.38 116.37 L 103.10 117.40 L 102.58 117.76 L 102.33 118.42 L 102.01 118.76 L 100.93 119.41 L 100.74 119.06 L 100.67 119.24 L 100.17 118.26 L 99.95 118.65 L 99.31 118.03 L 99.03 118.36 L 98.68 117.97 L 98.23 118.40 L 98.02 117.82 L 96.84 118.27 L 96.23 117.88 L 95.75 117.43 L 95.44 117.58 L 94.97 117.26 L 94.67 117.91 L 93.74 118.03 L 92.35 117.25 L 91.96 117.61 L 91.21 117.41 L 90.84 117.83 L 90.36 117.75 L 89.76 117.98 L 89.74 116.56 L 89.70 113.76 L 89.61 109.59 L 88.56 109.60 L 88.54 107.46 Z" fill="black" stroke="black" stroke-width="0.5" stroke-linejoin="round"></path>
<path d="M 120.18 112.44 L 120.19 111.90 L 122.09 111.86 L 121.96 112.84 L 124.62 112.84 L 124.70 112.88 L 129.57 112.92 L 129.61 112.92 L 129.63 112.94 L 129.69 112.99 L 129.89 113.04 L 130.75 113.05 L 131.08 113.12 L 131.26 113.13 L 131.59 113.27 L 131.61 113.28 L 131.95 113.55 L 132.00 113.61 L 132.04 113.68 L 132.05 113.86 L 132.02 114.08 L 131.95 114.27 L 131.87 114.41 L 131.80 114.51 L 131.77 114.54 L 131.53 114.77 L 131.13 115.04 L 130.95 115.20 L 130.84 115.36 L 130.77 115.51 L 130.77 115.71 L 130.85 115.96 L 131.15 116.45 L 131.22 116.64 L 131.29 116.91 L 131.28 117.04 L 131.25 117.16 L 131.24 117.17 L 131.20 117.22 L 131.01 117.27 L 130.80 117.26 L 130.61 117.22 L 130.26 117.08 L 130.00 117.01 L 129.12 116.84 L 128.95 116.88 L 128.73 116.99 L 128.55 117.10 L 128.35 117.23 L 127.84 117.47 L 127.61 117.54 L 127.43 117.56 L 127.01 117.46 L 126.55 117.41 L 126.23 117.44 L 126.22 117.44 L 126.06 117.50 L 125.94 117.58 L 125.61 117.87 L 125.28 118.04 L 125.00 118.19 L 124.78 118.30 L 124.58 118.46 L 124.23 118.68 L 123.90 118.80 L 123.78 118.88 L 123.61 119.03 L 123.40 119.16 L 123.08 119.35 L 123.01 119.40 L 122.91 119.54 L 122.91 119.57 L 122.72 119.74 L 122.50 119.92 L 122.17 120.25 L 122.01 120.37 L 121.78 120.50 L 121.51 120.62 L 121.05 120.78 L 120.92 120.76 L 120.63 120.79 L 120.59 120.79 L 120.54 120.78 L 120.23 120.67 L 120.18 117.61 L 120.18 112.44 Z" fill="black" stroke="black" stroke-width="0.5" stroke-linejoin="round"></path>
<path d="M 74.45 146.23 L 74.94 145.60 L 75.65 146.24 L 75.36 144.39 L 75.80 144.07 L 75.48 143.39 L 75.73 142.98 L 75.76 142.38 L 75.43 142.43 L 75.08 141.87 L 74.67 141.82 L 75.01 141.61 L 74.69 140.89 L 75.00 140.39 L 74.77 139.48 L 75.12 139.53 L 75.11 138.60 L 75.09 136.98 L 75.57 136.99 L 78.30 137.02 L 78.29 136.46 L 81.31 136.35 L 81.35 138.51 L 84.51 138.54 L 84.49 141.70 L 84.43 141.77 L 84.35 141.95 L 84.34 142.23 L 84.41 142.44 L 84.55 142.62 L 85.25 142.97 L 85.37 143.27 L 85.29 143.70 L 85.14 143.94 L 84.74 144.31 L 84.18 144.47 L 83.94 144.49 L 83.64 144.49 L 83.38 144.49 L 83.05 144.53 L 82.89 144.60 L 82.83 144.65 L 82.76 144.76 L 82.68 145.13 L 82.67 145.15 L 82.69 145.49 L 82.68 145.70 L 82.65 145.91 L 82.65 146.23 L 82.68 146.85 L 82.67 147.35 L 82.71 147.57 L 82.80 147.86 L 82.86 147.95 L 83.03 148.13 L 83.12 148.30 L 83.18 148.52 L 83.19 148.73 L 83.16 148.80 L 83.07 148.90 L 82.84 149.05 L 82.64 149.15 L 82.58 149.18 L 82.41 149.24 L 82.23 149.24 L 82.01 149.21 L 81.50 149.05 L 81.10 149.01 L 80.93 149.04 L 80.87 149.09 L 80.66 149.34 L 80.59 149.46 L 80.55 149.62 L 80.54 149.82 L 80.60 150.44 L 80.59 150.59 L 80.56 150.80 L 80.62 150.92 L 80.62 150.97 L 80.60 151.07 L 80.41 151.41 L 80.29 151.51 L 80.11 151.61 L 79.81 151.81 L 79.57 151.94 L 79.46 151.98 L 79.18 152.03 L 79.06 152.02 L 78.98 151.99 L 78.89 151.93 L 78.80 151.72 L 78.77 151.46 L 78.81 151.24 L 78.89 151.00 L 79.16 150.38 L 79.28 150.06 L 79.30 149.93 L 79.29 149.78 L 79.25 149.63 L 79.21 149.55 L 79.12 149.47 L 78.82 149.38 L 78.49 149.32 L 78.47 149.32 L 78.25 149.31 L 78.10 149.38 L 77.94 149.55 L 77.49 149.93 L 77.25 150.09 L 77.18 150.12 L 77.08 150.14 L 76.82 150.08 L 76.72 149.99 L 76.26 149.39 L 76.10 149.10 L 75.86 148.67 L 75.59 148.09 L 75.55 148.01 L 75.44 147.78 L 75.21 147.18 L 75.14 146.91 L 75.01 146.58 L 74.74 146.40 L 74.56 146.28 L 74.45 146.23 Z" fill="black" stroke="black" stroke-width="0.5" stroke-linejoin="round"></path>
<path d="M 95.37 29.06 L 96.04 29.05 L 96.00 27.14 L 95.96 25.31 L 95.91 21.57 L 95.90 21.04 L 95.89 19.35 L 100.81 19.36 L 101.78 19.38 L 103.57 19.36 L 104.13 19.35 L 104.38 19.35 L 107.40 19.31 L 107.40 20.06 L 107.40 20.87 L 107.41 22.68 L 107.45 24.56 L 107.45 24.82 L 107.45 27.53 L 107.42 28.85 L 106.88 28.85 L 106.46 28.85 L 106.53 33.71 L 103.36 33.83 L 99.11 33.85 L 97.04 33.89 L 97.05 32.26 L 95.41 32.30 L 95.37 29.06 Z" fill="black" stroke="black" stroke-width="0.5" stroke-linejoin="round"></path>
<path d="M 50.87 103.91 L 50.96 103.43 L 51.02 103.11 L 51.58 102.81 L 52.50 101.96 L 52.82 101.47 L 52.89 101.20 L 52.76 100.66 L 52.64 100.27 L 52.36 100.13 L 52.06 99.69 L 56.57 99.69 L 58.16 99.70 L 59.23 99.69 L 62.38 99.70 L 62.37 102.92 L 62.36 103.48 L 62.36 104.80 L 62.36 108.12 L 62.36 112.66 L 62.36 112.89 L 59.14 112.89 L 58.06 112.89 L 56.48 112.87 L 54.36 112.87 L 54.23 112.67 L 54.48 112.10 L 54.51 111.86 L 54.66 110.95 L 54.17 110.30 L 52.79 109.68 L 52.76 109.20 L 53.03 108.55 L 52.88 108.01 L 52.95 107.15 L 52.48 106.57 L 52.27 106.32 L 51.93 106.22 L 51.79 106.10 L 51.70 105.94 L 51.68 105.71 L 51.63 105.55 L 51.45 105.50 L 51.31 105.41 L 51.26 105.32 L 51.24 105.18 L 51.24 105.04 L 51.26 104.88 L 50.95 104.52 L 50.87 103.91 Z" fill="black" stroke="black" stroke-width="0.5" stroke-linejoin="round"></path>
<path d="M 78.24 131.60 L 84.75 131.54 L 85.45 131.55 L 88.81 131.63 L 88.81 130.57 L 90.33 130.57 L 90.21 131.82 L 90.56 133.28 L 89.89 132.84 L 89.59 133.23 L 89.77 133.78 L 89.44 133.94 L 89.35 134.51 L 90.21 134.87 L 90.29 135.68 L 89.77 136.08 L 89.72 137.53 L 89.20 137.91 L 89.34 138.69 L 88.87 138.70 L 88.69 139.60 L 88.21 139.49 L 88.13 139.42 L 87.70 138.96 L 87.34 138.84 L 86.96 139.04 L 86.84 139.31 L 86.86 139.85 L 87.02 140.11 L 87.54 140.28 L 88.32 140.48 L 88.45 140.73 L 88.39 141.04 L 88.25 141.27 L 88.06 141.40 L 87.57 141.43 L 86.92 141.35 L 86.79 141.40 L 86.58 141.57 L 86.33 142.20 L 86.17 142.28 L 86.08 142.27 L 85.69 141.83 L 85.32 141.52 L 84.81 141.48 L 84.60 141.58 L 84.49 141.70 L 84.51 138.54 L 81.35 138.51 L 81.31 136.35 L 78.29 136.46 L 78.24 131.60 Z" fill="black" stroke="black" stroke-width="0.5" stroke-linejoin="round"></path>
<path d="M 77.85 75.20 L 83.21 75.20 L 85.34 75.17 L 86.28 75.16 L 87.49 75.15 L 88.17 75.15 L 88.31 75.15 L 88.31 75.23 L 88.32 76.70 L 88.34 77.29 L 88.26 77.54 L 88.27 77.81 L 88.28 78.60 L 88.28 78.89 L 88.30 79.71 L 88.30 79.98 L 88.30 80.52 L 88.30 81.07 L 88.30 81.22 L 88.30 82.15 L 88.31 82.34 L 88.30 82.69 L 88.30 83.92 L 88.30 84.10 L 88.31 85.93 L 88.04 85.93 L 87.70 85.95 L 86.93 85.98 L 86.63 85.98 L 85.71 85.99 L 85.17 86.00 L 84.35 86.01 L 84.36 87.09 L 81.68 87.08 L 78.94 87.06 L 79.36 86.01 L 78.79 86.00 L 78.07 85.99 L 78.07 82.79 L 78.08 81.18 L 78.08 80.61 L 78.08 77.34 L 77.85 77.34 L 77.85 75.20 Z" fill="black" stroke="black" stroke-width="0.5" stroke-linejoin="round"></path>
<path d="M 119.67 78.54 L 119.68 77.02 L 120.24 77.01 L 120.25 74.30 L 120.24 73.26 L 120.23 72.18 L 127.11 72.16 L 131.31 72.16 L 131.30 72.52 L 131.27 75.03 L 131.27 75.24 L 131.27 75.42 L 131.26 75.96 L 131.26 76.35 L 131.25 76.38 L 131.25 77.04 L 131.24 77.77 L 131.23 77.86 L 131.23 77.88 L 131.23 78.14 L 131.23 78.14 L 131.23 78.67 L 131.23 78.74 L 131.22 78.82 L 131.21 79.21 L 131.21 79.21 L 131.22 79.31 L 131.21 79.74 L 131.21 80.22 L 131.21 80.27 L 131.22 82.44 L 126.81 82.43 L 124.97 82.34 L 124.96 82.88 L 122.45 82.87 L 122.31 82.87 L 120.69 82.85 L 120.71 81.24 L 120.74 80.16 L 119.67 80.16 L 119.67 78.54 Z" fill="black" stroke="black" stroke-width="0.5" stroke-linejoin="round"></path>
<path d="M 41.16 136.74 L 41.18 136.70 L 41.19 136.66 L 41.34 136.71 L 41.68 137.19 L 41.66 137.28 L 41.70 137.41 L 41.81 137.45 L 41.95 137.42 L 42.01 137.31 L 41.99 137.13 L 42.07 136.89 L 42.35 136.75 L 42.47 136.57 L 42.27 136.43 L 42.19 136.05 L 42.46 135.88 L 42.60 135.38 L 42.95 135.15 L 43.19 135.12 L 43.40 135.26 L 43.38 135.49 L 43.22 135.75 L 43.11 135.99 L 43.16 136.21 L 43.30 136.28 L 43.42 136.26 L 43.72 135.86 L 44.00 135.64 L 44.09 135.36 L 44.20 134.96 L 44.37 134.72 L 44.54 134.65 L 44.71 134.74 L 44.78 134.90 L 44.62 135.47 L 44.71 135.83 L 44.95 136.01 L 45.19 135.96 L 45.33 135.84 L 45.57 135.35 L 45.62 135.12 L 45.59 134.83 L 45.57 134.18 L 45.84 133.41 L 45.85 133.37 L 46.33 132.77 L 47.07 132.49 L 47.64 131.67 L 47.83 131.39 L 47.83 131.39 L 48.05 131.08 L 48.08 130.87 L 49.33 130.60 L 50.42 130.09 L 50.09 129.69 L 50.56 129.25 L 50.69 129.60 L 51.11 129.43 L 51.13 129.82 L 51.56 129.58 L 52.19 129.54 L 52.92 128.05 L 53.87 127.98 L 53.61 127.29 L 53.88 127.03 L 54.14 127.16 L 54.07 127.68 L 54.62 127.59 L 55.17 127.92 L 55.24 127.52 L 55.75 127.25 L 56.06 126.48 L 56.07 128.98 L 56.58 128.99 L 56.58 130.08 L 57.64 130.07 L 57.63 132.31 L 58.66 132.27 L 59.31 131.92 L 59.67 132.17 L 60.22 132.09 L 60.20 137.09 L 60.20 138.73 L 55.95 138.75 L 55.94 140.07 L 54.14 140.02 L 52.27 139.99 L 49.66 139.96 L 49.67 138.76 L 46.51 138.72 L 46.52 137.74 L 41.24 137.68 L 41.18 137.29 L 41.14 136.99 L 41.16 136.74 Z" fill="black" stroke="black" stroke-width="0.5" stroke-linejoin="round"></path>
<path d="M 54.13 66.08 L 54.13 66.07 L 54.13 65.27 L 54.16 63.12 L 54.16 63.10 L 54.17 62.30 L 54.22 58.01 L 54.25 55.29 L 54.26 54.79 L 54.26 54.75 L 58.47 54.75 L 60.08 54.76 L 66.54 54.79 L 66.56 54.94 L 66.56 55.89 L 66.58 58.82 L 65.46 59.78 L 64.37 59.99 L 62.20 60.97 L 62.12 61.29 L 61.96 61.44 L 61.86 61.55 L 61.38 61.88 L 61.21 62.07 L 60.85 62.83 L 60.70 62.94 L 60.22 63.24 L 59.05 64.57 L 57.28 65.25 L 56.75 66.23 L 57.71 67.35 L 57.66 67.64 L 55.28 67.65 L 55.28 66.87 L 54.12 66.88 L 54.13 66.08 Z" fill="black" stroke="black" stroke-width="0.5" stroke-linejoin="round"></path>
<path d="M 56.06 126.48 L 56.88 126.65 L 57.11 126.22 L 57.53 126.74 L 57.75 126.19 L 58.31 126.32 L 58.71 127.27 L 58.94 126.87 L 58.70 126.31 L 59.21 126.16 L 59.86 126.73 L 60.17 126.91 L 60.34 126.94 L 60.50 127.07 L 60.65 127.34 L 60.92 127.31 L 61.08 127.25 L 61.35 127.01 L 61.94 126.74 L 62.10 126.17 L 62.33 126.06 L 62.93 126.29 L 63.42 125.79 L 63.94 125.93 L 64.63 126.58 L 64.94 127.14 L 66.14 126.33 L 67.04 127.17 L 67.14 127.18 L 67.14 134.96 L 67.12 137.59 L 65.65 137.58 L 63.92 137.64 L 62.48 137.65 L 62.31 137.64 L 60.73 137.62 L 60.73 137.10 L 60.20 137.09 L 60.22 132.09 L 59.67 132.17 L 59.31 131.92 L 58.66 132.27 L 57.63 132.31 L 57.64 130.07 L 56.58 130.08 L 56.58 128.99 L 56.07 128.98 L 56.06 126.48 Z" fill="black" stroke="black" stroke-width="0.5" stroke-linejoin="round"></path>
<path d="M 103.25 104.56 L 103.52 104.50 L 104.06 104.49 L 106.46 104.43 L 109.66 104.38 L 109.87 104.36 L 112.87 102.42 L 113.46 102.04 L 113.42 103.84 L 113.32 112.47 L 110.75 112.50 L 110.69 113.59 L 109.66 113.59 L 109.66 114.66 L 108.61 114.66 L 108.62 115.75 L 107.83 116.00 L 107.78 115.75 L 106.53 115.77 L 106.54 116.08 L 105.14 115.47 L 104.02 116.29 L 103.38 116.37 L 103.35 112.86 L 103.32 110.19 L 103.30 108.24 L 103.28 106.73 L 103.25 104.56 Z" fill="black" stroke="black" stroke-width="0.5" stroke-linejoin="round"></path>
<path d="M 90.44 93.37 L 90.44 92.81 L 90.43 90.42 L 90.47 90.19 L 90.46 87.99 L 90.46 87.45 L 90.48 85.87 L 90.67 85.87 L 91.73 85.85 L 92.00 85.85 L 92.53 85.83 L 93.08 85.82 L 93.61 85.81 L 93.61 85.81 L 93.97 85.81 L 94.41 85.80 L 95.22 85.77 L 95.46 85.76 L 95.76 85.76 L 96.30 85.74 L 97.04 85.74 L 98.93 85.70 L 98.93 89.41 L 98.95 89.95 L 98.96 93.17 L 98.91 93.32 L 98.91 95.90 L 98.93 96.44 L 98.20 96.47 L 97.04 96.50 L 95.14 96.56 L 90.92 96.64 L 90.43 96.65 L 90.44 93.37 Z" fill="black" stroke="black" stroke-width="0.5" stroke-linejoin="round"></path>
<path d="M 38.11 149.65 L 38.38 149.66 L 38.80 150.02 L 39.25 150.19 L 39.66 150.17 L 40.07 150.20 L 40.29 150.29 L 40.44 150.06 L 40.25 149.39 L 39.97 149.34 L 38.97 149.14 L 38.87 148.81 L 39.12 148.62 L 39.29 148.65 L 39.80 148.29 L 39.78 147.77 L 39.92 147.70 L 40.02 147.71 L 40.23 147.68 L 40.36 147.59 L 40.46 147.41 L 40.47 147.02 L 40.20 146.32 L 40.16 145.60 L 40.26 145.49 L 40.61 145.10 L 40.32 144.89 L 39.95 145.04 L 39.64 144.77 L 39.64 144.77 L 39.82 144.29 L 40.79 144.27 L 41.14 144.12 L 41.75 143.70 L 41.92 143.28 L 42.05 142.92 L 41.90 142.48 L 40.69 143.08 L 40.48 143.03 L 40.35 142.58 L 40.45 142.35 L 40.87 142.17 L 41.19 142.22 L 41.39 142.19 L 41.55 142.06 L 41.55 141.71 L 41.65 141.42 L 41.75 141.30 L 41.94 141.30 L 42.07 141.27 L 42.37 141.50 L 42.66 141.03 L 42.87 140.95 L 42.94 140.78 L 42.88 140.57 L 42.70 140.40 L 42.70 140.11 L 42.61 139.82 L 41.97 139.37 L 41.51 138.87 L 41.27 138.42 L 41.25 137.75 L 41.24 137.68 L 46.52 137.74 L 46.51 138.72 L 49.67 138.76 L 49.66 139.96 L 49.65 141.57 L 49.43 141.57 L 49.41 143.21 L 49.40 144.57 L 49.38 145.62 L 49.38 145.87 L 49.35 147.97 L 49.31 149.96 L 49.31 149.97 L 49.03 150.09 L 48.82 150.14 L 48.66 150.16 L 48.39 150.07 L 48.20 150.06 L 47.57 150.20 L 47.32 150.37 L 47.26 150.44 L 46.96 150.69 L 46.88 150.73 L 46.76 150.76 L 46.63 150.78 L 46.27 150.78 L 46.05 150.77 L 45.63 150.73 L 45.54 150.70 L 45.42 150.61 L 45.33 150.52 L 45.32 150.48 L 45.31 150.32 L 45.23 150.16 L 45.20 150.12 L 44.87 149.84 L 44.83 149.76 L 44.71 149.43 L 44.64 149.31 L 44.47 149.12 L 44.44 149.09 L 44.30 148.98 L 44.13 148.90 L 43.87 148.84 L 43.82 148.84 L 43.72 148.85 L 43.52 148.95 L 43.47 149.01 L 43.04 149.58 L 42.89 149.80 L 42.87 149.83 L 42.75 149.97 L 42.62 150.14 L 42.57 150.21 L 42.52 150.32 L 42.50 150.48 L 42.50 150.64 L 42.53 150.79 L 42.58 150.95 L 42.63 151.05 L 42.89 151.39 L 43.24 151.73 L 43.37 151.95 L 43.44 152.17 L 43.55 152.90 L 43.53 153.10 L 43.47 153.28 L 43.35 153.37 L 43.12 153.48 L 42.88 153.56 L 42.74 153.64 L 42.67 153.73 L 42.68 153.86 L 42.64 153.94 L 42.56 154.00 L 42.40 154.47 L 42.34 154.54 L 42.28 154.58 L 42.17 154.60 L 41.96 154.55 L 41.67 154.23 L 41.62 154.12 L 41.49 154.00 L 41.27 153.86 L 41.19 153.85 L 41.07 153.78 L 41.02 153.71 L 40.91 153.64 L 40.69 153.55 L 40.39 153.49 L 40.23 153.51 L 40.03 153.59 L 39.99 153.42 L 39.82 153.21 L 39.57 153.24 L 39.19 153.48 L 38.87 153.52 L 38.65 153.32 L 38.46 153.16 L 38.24 152.65 L 38.45 152.44 L 38.72 152.48 L 39.11 152.71 L 39.46 152.76 L 39.68 152.73 L 40.07 152.41 L 39.88 152.01 L 39.19 151.79 L 38.91 151.49 L 38.59 150.64 L 38.19 150.17 L 38.13 150.10 L 38.05 149.81 L 38.11 149.65 Z" fill="black" stroke="black" stroke-width="0.5" stroke-linejoin="round"></path>
<path d="M 119.70 58.36 L 120.07 58.35 L 120.08 57.86 L 120.08 54.65 L 120.25 54.38 L 120.24 51.41 L 124.00 51.37 L 124.27 51.37 L 131.55 51.23 L 131.55 52.86 L 131.55 53.55 L 131.54 53.83 L 131.51 55.28 L 131.50 55.83 L 131.49 57.16 L 131.50 59.33 L 131.50 59.33 L 131.51 60.90 L 131.51 60.90 L 125.45 60.94 L 125.18 60.95 L 119.74 61.03 L 119.71 59.43 L 119.70 58.36 Z" fill="black" stroke="black" stroke-width="0.5" stroke-linejoin="round"></path>
<path d="M 88.21 139.49 L 88.69 139.60 L 88.87 138.70 L 89.34 138.69 L 89.20 137.91 L 89.72 137.53 L 89.77 136.08 L 90.29 135.68 L 90.21 134.87 L 89.35 134.51 L 89.44 133.94 L 89.77 133.78 L 89.59 133.23 L 89.89 132.84 L 90.56 133.28 L 90.21 131.82 L 90.33 130.57 L 91.54 130.59 L 96.64 130.75 L 96.65 133.15 L 96.65 133.96 L 97.16 133.97 L 97.17 135.03 L 97.70 135.03 L 97.78 136.10 L 98.32 136.10 L 98.31 136.65 L 98.84 136.66 L 98.83 138.81 L 98.76 139.29 L 100.39 139.32 L 100.42 139.52 L 100.16 140.23 L 100.14 141.00 L 100.24 141.86 L 100.26 142.08 L 100.28 142.47 L 100.23 142.99 L 100.23 142.99 L 100.03 143.47 L 99.96 143.72 L 99.92 143.89 L 99.89 144.17 L 99.85 144.66 L 99.80 144.99 L 99.77 145.12 L 99.69 145.31 L 99.55 145.50 L 99.42 145.64 L 99.29 145.77 L 99.04 145.91 L 98.95 145.97 L 98.75 146.00 L 98.25 146.04 L 97.67 146.17 L 97.60 146.18 L 97.31 146.23 L 96.98 146.32 L 96.73 146.45 L 96.65 146.54 L 96.58 146.74 L 96.57 146.87 L 96.62 147.27 L 96.60 147.46 L 96.59 147.48 L 96.55 147.59 L 96.49 147.68 L 96.37 147.72 L 96.29 147.72 L 96.19 147.67 L 96.04 147.52 L 95.82 147.23 L 95.73 147.07 L 95.64 146.89 L 95.54 146.65 L 95.44 146.42 L 95.47 146.34 L 95.43 146.29 L 95.30 146.14 L 95.09 145.99 L 94.85 145.85 L 94.75 145.80 L 94.50 145.68 L 94.22 145.61 L 93.95 145.58 L 93.57 145.60 L 92.82 145.81 L 92.68 145.81 L 92.49 145.76 L 92.15 145.57 L 91.71 145.37 L 91.32 145.14 L 91.17 144.95 L 90.96 144.72 L 90.48 144.48 L 90.40 144.42 L 90.16 144.23 L 90.00 144.07 L 89.98 144.05 L 89.81 143.69 L 89.66 142.88 L 89.66 142.54 L 89.87 141.37 L 89.86 141.09 L 89.69 140.81 L 89.40 140.34 L 88.94 139.98 L 88.57 139.79 L 88.21 139.49 Z" fill="black" stroke="black" stroke-width="0.5" stroke-linejoin="round"></path>
<path d="M 78.06 90.29 L 79.09 88.96 L 79.12 88.53 L 78.88 88.11 L 78.94 87.06 L 81.68 87.08 L 84.36 87.09 L 84.35 86.01 L 85.17 86.00 L 85.71 85.99 L 86.63 85.98 L 86.93 85.98 L 87.70 85.95 L 88.04 85.93 L 88.31 85.93 L 88.85 85.91 L 90.42 85.88 L 90.48 85.87 L 90.46 87.45 L 90.46 87.99 L 90.47 90.19 L 90.43 90.42 L 90.44 92.81 L 90.44 93.37 L 90.43 96.65 L 87.29 96.71 L 86.75 96.72 L 84.37 96.77 L 84.13 96.76 L 83.58 96.76 L 81.28 96.72 L 79.67 96.68 L 79.67 96.46 L 79.67 93.52 L 79.65 93.37 L 79.63 91.91 L 78.11 91.91 L 78.08 91.62 L 78.06 90.29 Z" fill="black" stroke="black" stroke-width="0.5" stroke-linejoin="round"></path>
<path d="M 109.53 58.34 L 110.24 58.37 L 113.34 58.35 L 113.34 58.37 L 116.40 58.37 L 116.53 58.39 L 119.70 58.36 L 119.71 59.43 L 119.74 61.03 L 119.77 63.68 L 119.79 64.68 L 119.80 65.76 L 119.83 67.37 L 119.86 69.51 L 116.63 69.52 L 114.75 69.53 L 113.39 69.52 L 112.32 69.51 L 109.59 69.50 L 109.60 68.95 L 109.60 67.93 L 109.60 67.10 L 109.60 66.83 L 109.61 65.74 L 109.61 64.27 L 109.58 61.58 L 109.57 61.04 L 109.53 58.34 Z" fill="black" stroke="black" stroke-width="0.5" stroke-linejoin="round"></path>
<path d="M 123.85 38.47 L 126.02 38.44 L 129.32 38.37 L 131.53 38.30 L 131.53 38.30 L 131.54 39.05 L 131.55 41.54 L 131.56 42.80 L 131.55 44.09 L 131.55 44.77 L 131.55 44.95 L 131.56 45.47 L 131.56 45.47 L 131.56 45.82 L 131.56 46.42 L 131.56 46.83 L 131.56 46.91 L 131.55 47.44 L 131.55 47.97 L 131.55 47.98 L 131.56 48.08 L 131.56 48.55 L 131.55 51.23 L 124.27 51.37 L 124.00 51.37 L 123.95 48.15 L 123.97 48.15 L 123.95 44.92 L 123.93 44.81 L 123.89 41.68 L 123.85 38.47 Z" fill="black" stroke="black" stroke-width="0.5" stroke-linejoin="round"></path>
<path d="M 55.79 143.29 L 55.80 141.68 L 55.92 141.14 L 55.94 140.07 L 55.95 138.75 L 60.20 138.73 L 60.20 137.09 L 60.73 137.10 L 60.73 137.62 L 62.31 137.64 L 62.48 137.65 L 63.92 137.64 L 65.65 137.58 L 67.12 137.59 L 67.12 138.65 L 68.70 138.66 L 68.70 141.13 L 68.70 141.67 L 68.68 141.81 L 67.14 141.81 L 67.06 142.62 L 66.66 143.12 L 66.42 144.08 L 66.63 144.38 L 65.65 144.56 L 65.43 144.16 L 64.84 144.20 L 64.86 145.30 L 64.39 145.69 L 64.00 145.80 L 63.63 146.64 L 62.79 147.22 L 62.70 147.64 L 62.62 148.09 L 62.05 148.30 L 61.59 148.94 L 61.57 150.65 L 61.54 150.61 L 61.41 150.50 L 60.62 149.92 L 60.61 149.92 L 60.12 149.65 L 59.78 149.56 L 59.71 149.56 L 59.68 149.59 L 59.41 149.45 L 59.19 149.27 L 59.13 149.19 L 59.03 149.11 L 58.94 149.09 L 58.88 149.04 L 58.63 148.76 L 58.62 148.74 L 58.64 148.70 L 58.63 148.68 L 58.62 148.68 L 58.41 148.55 L 57.81 148.34 L 57.77 148.31 L 57.44 148.24 L 57.32 148.21 L 57.04 148.21 L 56.80 148.23 L 56.49 148.30 L 56.42 148.34 L 56.39 148.35 L 56.41 148.10 L 56.41 147.74 L 56.43 147.04 L 56.44 146.03 L 56.43 144.88 L 55.84 144.88 L 55.77 144.72 L 55.79 143.29 Z" fill="black" stroke="black" stroke-width="0.5" stroke-linejoin="round"></path>
<path d="M 75.60 47.84 L 76.05 47.83 L 76.51 47.26 L 75.94 47.25 L 76.15 46.75 L 76.36 45.85 L 76.08 45.51 L 76.35 45.13 L 81.06 45.19 L 82.67 45.20 L 82.67 45.88 L 82.67 46.79 L 86.97 46.79 L 86.97 48.40 L 86.95 51.63 L 86.91 56.41 L 82.67 56.43 L 81.45 56.42 L 77.86 56.40 L 77.85 54.81 L 77.84 51.82 L 77.78 51.61 L 75.69 51.60 L 75.67 50.42 L 75.65 48.79 L 75.60 47.84 Z" fill="black" stroke="black" stroke-width="0.5" stroke-linejoin="round"></path>
<path d="M 113.26 51.42 L 120.24 51.41 L 120.25 54.38 L 120.08 54.65 L 120.08 57.86 L 120.07 58.35 L 119.70 58.36 L 116.53 58.39 L 116.40 58.37 L 113.34 58.37 L 113.34 58.35 L 113.29 54.66 L 113.26 51.42 Z" fill="black" stroke="black" stroke-width="0.5" stroke-linejoin="round"></path>
<path d="M 113.21 48.22 L 116.45 48.19 L 116.44 44.96 L 116.41 38.50 L 119.60 38.50 L 120.92 38.52 L 122.83 38.49 L 123.85 38.47 L 123.89 41.68 L 123.93 44.81 L 123.95 44.92 L 123.97 48.15 L 123.95 48.15 L 124.00 51.37 L 120.24 51.41 L 113.26 51.42 L 113.21 48.22 Z" fill="black" stroke="black" stroke-width="0.5" stroke-linejoin="round"></path>
<path d="M 78.18 119.53 L 78.19 113.08 L 78.19 112.78 L 78.21 109.54 L 81.30 109.55 L 81.43 109.55 L 82.33 109.56 L 84.83 109.58 L 86.93 109.61 L 87.14 109.60 L 88.56 109.60 L 89.61 109.59 L 89.70 113.76 L 89.74 116.56 L 89.76 117.98 L 89.33 119.00 L 88.77 119.11 L 88.81 120.78 L 84.64 120.80 L 83.98 120.76 L 83.46 120.77 L 82.08 120.80 L 78.19 120.83 L 78.18 119.53 Z" fill="black" stroke="black" stroke-width="0.5" stroke-linejoin="round"></path>
<path d="M 98.87 77.16 L 99.33 77.16 L 99.33 76.51 L 99.33 76.36 L 99.33 75.56 L 99.34 75.04 L 100.94 74.98 L 101.47 74.97 L 101.47 74.43 L 103.08 74.40 L 103.62 74.39 L 106.84 74.36 L 109.59 74.35 L 109.57 77.05 L 109.01 77.04 L 109.01 77.28 L 109.01 80.23 L 107.97 80.24 L 107.98 83.48 L 102.16 83.48 L 102.14 83.48 L 100.51 83.48 L 98.94 83.53 L 98.94 82.45 L 98.94 81.91 L 98.93 81.37 L 98.92 80.77 L 98.92 80.37 L 98.91 79.83 L 98.90 79.29 L 98.90 78.85 L 98.90 78.74 L 98.88 77.66 L 98.87 77.16 Z" fill="black" stroke="black" stroke-width="0.5" stroke-linejoin="round"></path>
<path d="M 90.68 64.38 L 93.93 64.33 L 97.68 64.30 L 98.52 64.29 L 101.49 64.27 L 101.46 65.25 L 101.45 68.52 L 101.47 71.19 L 101.48 72.27 L 101.47 73.99 L 101.47 74.43 L 101.47 74.97 L 100.94 74.98 L 99.34 75.04 L 98.42 75.05 L 98.27 75.05 L 97.71 75.04 L 97.39 75.04 L 96.82 75.04 L 96.73 75.04 L 95.69 75.04 L 95.59 75.05 L 95.41 75.05 L 94.38 75.05 L 93.43 75.04 L 93.08 75.04 L 92.89 75.05 L 92.35 75.05 L 91.81 75.06 L 90.74 75.08 L 90.73 74.54 L 90.73 73.73 L 90.73 73.20 L 90.73 72.40 L 90.72 69.74 L 90.71 68.66 L 90.69 65.68 L 90.68 64.38 Z" fill="black" stroke="black" stroke-width="0.5" stroke-linejoin="round"></path>
<path d="M 68.78 91.60 L 68.83 86.94 L 68.83 86.87 L 68.89 80.49 L 68.90 79.69 L 68.93 77.27 L 71.00 77.29 L 71.06 77.29 L 74.02 77.32 L 77.85 77.34 L 78.08 77.34 L 78.08 80.61 L 78.08 81.18 L 78.07 82.79 L 78.07 85.99 L 78.79 86.00 L 79.36 86.01 L 78.94 87.06 L 78.88 88.11 L 79.12 88.53 L 79.09 88.96 L 78.06 90.29 L 78.08 91.62 L 78.11 91.91 L 77.94 91.89 L 75.42 91.86 L 73.70 91.84 L 70.90 91.79 L 68.78 91.77 L 68.78 91.60 Z" fill="black" stroke="black" stroke-width="0.5" stroke-linejoin="round"></path>
<path d="M 97.77 128.66 L 97.83 128.14 L 98.81 128.13 L 98.79 127.65 L 99.42 127.63 L 100.31 127.62 L 100.84 127.59 L 100.84 127.05 L 101.36 127.04 L 101.36 125.98 L 101.89 125.98 L 101.89 125.46 L 102.64 125.45 L 102.64 124.94 L 103.43 123.85 L 103.77 123.84 L 104.22 123.83 L 104.66 123.81 L 105.41 123.82 L 109.77 123.80 L 111.85 123.78 L 111.86 124.31 L 112.36 124.54 L 113.79 124.53 L 114.03 125.00 L 114.14 125.37 L 114.16 125.67 L 114.15 126.01 L 114.10 126.21 L 113.94 126.55 L 113.86 126.66 L 113.66 126.83 L 113.65 126.84 L 113.41 126.97 L 112.93 127.19 L 112.82 127.25 L 112.70 127.34 L 112.54 127.49 L 112.48 127.57 L 112.39 127.78 L 112.34 127.92 L 112.29 128.15 L 112.24 128.25 L 112.00 128.65 L 111.79 128.89 L 111.31 129.13 L 111.28 129.15 L 110.99 129.26 L 110.72 129.34 L 110.57 129.37 L 110.24 129.42 L 109.62 129.44 L 109.27 129.55 L 108.81 129.86 L 108.70 129.96 L 108.34 130.56 L 108.34 130.61 L 108.31 130.78 L 108.30 130.80 L 108.07 131.32 L 107.98 131.57 L 107.96 131.65 L 107.84 132.14 L 107.84 132.14 L 107.83 132.27 L 107.84 132.66 L 107.82 132.83 L 107.63 133.45 L 107.61 133.52 L 107.40 134.10 L 107.22 134.39 L 107.01 134.66 L 106.97 134.71 L 106.79 135.05 L 106.74 135.10 L 106.55 135.27 L 106.10 135.55 L 105.93 135.65 L 105.62 135.84 L 105.15 136.13 L 104.98 136.23 L 104.81 136.31 L 104.81 136.31 L 104.64 136.29 L 104.64 136.29 L 104.35 136.11 L 104.35 136.11 L 104.19 135.93 L 104.22 135.85 L 104.21 135.82 L 104.00 135.61 L 103.78 135.53 L 103.48 135.52 L 103.48 135.52 L 103.49 135.08 L 103.49 135.08 L 103.72 134.35 L 103.32 133.93 L 103.39 133.84 L 103.39 133.84 L 103.69 133.93 L 104.26 133.31 L 104.29 133.15 L 103.91 132.59 L 103.73 132.41 L 103.43 131.99 L 103.03 131.41 L 103.02 131.25 L 102.41 131.25 L 99.83 131.27 L 98.51 131.28 L 98.51 131.01 L 97.72 130.73 L 97.77 128.66 Z" fill="black" stroke="black" stroke-width="0.5" stroke-linejoin="round"></path>
<path d="M 119.74 61.03 L 125.18 60.95 L 125.45 60.94 L 131.51 60.90 L 131.50 61.18 L 131.48 62.48 L 131.46 64.09 L 131.46 64.09 L 131.44 65.04 L 131.44 65.25 L 131.44 65.25 L 131.43 65.70 L 131.43 65.70 L 131.38 67.59 L 131.38 67.66 L 131.37 68.39 L 131.36 68.93 L 131.34 70.54 L 131.33 71.09 L 131.31 72.16 L 131.31 72.16 L 127.11 72.16 L 120.23 72.18 L 119.88 72.19 L 119.86 69.51 L 119.83 67.37 L 119.80 65.76 L 119.79 64.68 L 119.77 63.68 L 119.74 61.03 Z" fill="black" stroke="black" stroke-width="0.5" stroke-linejoin="round"></path>
<path d="M 122.18 111.18 L 122.73 107.40 L 123.11 104.68 L 123.53 101.65 L 123.62 101.06 L 124.08 97.92 L 125.83 97.94 L 125.87 97.94 L 127.96 97.97 L 131.07 98.00 L 131.06 99.06 L 131.06 99.22 L 131.06 99.24 L 131.06 99.60 L 131.05 99.98 L 131.05 100.00 L 131.05 100.09 L 131.06 100.12 L 131.06 100.24 L 131.05 100.87 L 131.05 101.19 L 131.05 103.30 L 131.06 103.44 L 131.05 103.76 L 131.05 103.88 L 131.05 104.83 L 131.05 105.13 L 131.05 105.37 L 130.89 105.41 L 130.87 105.42 L 130.73 105.50 L 130.50 105.74 L 130.30 105.92 L 130.21 106.00 L 130.13 106.10 L 129.90 106.38 L 129.65 106.51 L 129.10 106.81 L 128.95 106.96 L 128.85 107.14 L 128.86 107.33 L 128.94 107.43 L 129.06 107.70 L 129.09 107.76 L 129.27 108.01 L 129.40 108.12 L 128.82 108.77 L 128.44 108.56 L 127.25 109.45 L 126.01 109.38 L 125.84 110.18 L 125.46 109.91 L 124.80 110.15 L 124.29 110.81 L 124.28 111.15 L 123.60 111.03 L 123.19 111.65 L 122.61 111.61 L 122.67 110.87 L 122.18 111.18 Z" fill="black" stroke="black" stroke-width="0.5" stroke-linejoin="round"></path>
<path d="M 61.36 34.96 L 61.37 30.11 L 61.37 29.02 L 61.37 27.37 L 62.77 26.74 L 62.99 26.50 L 63.73 25.65 L 64.67 25.24 L 65.47 24.87 L 66.29 25.07 L 67.12 25.35 L 67.50 25.49 L 70.10 27.33 L 71.18 26.70 L 71.18 29.08 L 71.16 33.36 L 71.16 36.01 L 71.16 38.67 L 69.55 38.68 L 69.56 39.80 L 69.58 41.42 L 69.03 41.42 L 66.36 41.43 L 66.40 45.16 L 63.20 45.16 L 61.61 45.16 L 61.58 39.26 L 61.56 38.70 L 61.35 38.70 L 61.36 34.96 Z" fill="black" stroke="black" stroke-width="0.5" stroke-linejoin="round"></path>
<path d="M 95.79 7.36 L 96.40 7.36 L 96.41 7.36 L 97.44 7.38 L 97.81 7.39 L 97.82 7.39 L 98.28 7.39 L 98.28 7.39 L 98.28 7.39 L 99.21 7.40 L 100.72 7.41 L 100.73 7.41 L 101.03 7.41 L 101.12 7.41 L 101.20 7.41 L 103.49 7.42 L 103.49 7.42 L 103.50 7.42 L 103.95 7.42 L 103.98 7.42 L 104.65 7.42 L 104.66 7.42 L 105.39 7.42 L 106.73 7.42 L 107.22 7.42 L 107.25 9.45 L 107.28 11.30 L 107.31 12.90 L 107.33 13.97 L 107.35 15.04 L 107.37 16.12 L 107.40 19.31 L 104.38 19.35 L 104.13 19.35 L 103.57 19.36 L 101.78 19.38 L 100.81 19.36 L 95.89 19.35 L 95.88 17.75 L 95.87 16.37 L 95.88 16.19 L 95.85 13.79 L 95.85 12.98 L 95.83 10.98 L 95.83 10.33 L 95.83 10.32 L 95.82 9.77 L 95.81 9.23 L 95.79 7.36 Z" fill="black" stroke="black" stroke-width="0.5" stroke-linejoin="round"></path>
<path d="M 54.25 24.43 L 54.26 22.58 L 54.26 22.30 L 54.29 21.38 L 54.29 21.22 L 54.28 19.36 L 54.28 18.69 L 54.28 18.69 L 54.28 18.08 L 54.28 18.08 L 54.28 18.02 L 54.28 17.74 L 54.29 17.18 L 54.29 17.18 L 54.29 17.02 L 54.29 16.84 L 54.29 16.68 L 54.30 16.14 L 54.30 15.94 L 54.30 15.88 L 54.30 15.22 L 54.30 14.88 L 54.30 14.86 L 54.30 14.79 L 54.31 14.64 L 54.31 14.39 L 54.31 14.13 L 54.31 14.10 L 54.31 13.98 L 54.31 13.50 L 54.31 13.26 L 54.31 12.78 L 54.31 12.46 L 54.31 12.33 L 54.31 12.17 L 54.31 12.09 L 54.31 12.08 L 54.31 12.00 L 54.31 11.64 L 54.31 11.04 L 54.30 9.91 L 54.30 9.90 L 54.30 9.63 L 54.30 9.50 L 54.30 9.50 L 54.33 9.29 L 54.43 9.23 L 54.58 9.44 L 54.70 9.73 L 54.86 9.91 L 54.86 9.91 L 55.00 10.01 L 55.84 10.60 L 55.92 10.62 L 56.03 10.45 L 56.08 10.42 L 56.44 10.18 L 56.52 10.15 L 57.09 9.98 L 57.14 9.96 L 57.40 10.03 L 57.54 10.19 L 57.83 10.43 L 57.25 11.09 L 56.74 11.28 L 56.91 11.48 L 57.00 11.59 L 57.18 11.71 L 57.97 11.91 L 58.00 11.92 L 58.83 12.20 L 59.45 12.33 L 59.99 12.44 L 61.00 12.47 L 61.03 12.47 L 61.30 12.56 L 61.78 12.54 L 61.78 12.54 L 62.88 12.40 L 62.88 12.91 L 62.89 13.51 L 62.89 13.68 L 62.90 14.58 L 62.91 15.11 L 62.93 16.06 L 62.94 16.18 L 62.95 16.72 L 62.96 18.06 L 62.96 19.40 L 62.96 20.87 L 62.96 22.62 L 62.95 23.13 L 62.99 26.50 L 62.77 26.74 L 61.37 27.37 L 61.09 27.49 L 59.74 28.69 L 57.48 29.45 L 57.01 29.23 L 56.54 29.00 L 54.26 29.31 L 54.25 24.44 L 54.25 24.43 Z" fill="black" stroke="black" stroke-width="0.5" stroke-linejoin="round"></path>
<path d="M 106.53 115.77 L 107.78 115.75 L 107.83 116.00 L 108.62 115.75 L 108.61 114.66 L 109.66 114.66 L 109.66 113.59 L 110.69 113.59 L 110.75 112.50 L 113.32 112.47 L 115.51 112.45 L 119.29 112.44 L 120.18 112.44 L 120.18 117.61 L 120.23 120.67 L 120.14 120.64 L 119.89 120.50 L 119.67 120.30 L 119.53 120.13 L 119.17 119.51 L 119.06 119.37 L 118.95 119.16 L 118.60 118.94 L 118.35 118.86 L 118.13 118.82 L 117.74 118.77 L 117.26 118.80 L 116.56 118.98 L 116.49 119.00 L 116.38 119.05 L 116.27 119.09 L 115.96 119.17 L 115.62 119.21 L 115.45 119.21 L 115.38 119.21 L 114.66 119.03 L 114.58 119.01 L 114.28 118.97 L 114.12 119.00 L 113.97 119.05 L 113.63 119.25 L 113.52 119.36 L 113.39 119.60 L 113.21 119.84 L 113.11 119.99 L 113.11 120.01 L 113.01 120.50 L 112.98 120.74 L 112.99 120.89 L 113.02 121.00 L 113.05 121.04 L 113.32 121.44 L 113.49 121.84 L 113.52 122.22 L 113.47 122.83 L 113.48 123.64 L 113.50 123.83 L 113.53 123.96 L 113.57 124.09 L 113.63 124.22 L 113.79 124.53 L 112.36 124.54 L 111.86 124.31 L 111.85 123.78 L 109.77 123.80 L 109.74 121.12 L 108.69 121.12 L 108.67 120.05 L 107.62 120.04 L 107.61 119.67 L 107.61 119.23 L 106.55 118.98 L 106.54 116.08 L 106.53 115.77 Z" fill="black" stroke="black" stroke-width="0.5" stroke-linejoin="round"></path>
<path d="M 77.83 64.44 L 77.85 61.23 L 77.85 60.69 L 77.86 58.00 L 77.86 56.40 L 81.45 56.42 L 82.67 56.43 L 86.91 56.41 L 87.45 56.41 L 88.79 56.41 L 88.79 58.01 L 89.60 58.02 L 89.60 58.55 L 90.67 58.56 L 90.68 60.95 L 90.68 64.38 L 90.69 65.68 L 85.32 65.82 L 81.08 65.79 L 80.03 65.75 L 77.83 65.76 L 77.83 64.44 Z" fill="black" stroke="black" stroke-width="0.5" stroke-linejoin="round"></path>
<path d="M 96.64 130.75 L 97.17 130.71 L 97.72 130.73 L 98.51 131.01 L 98.51 131.28 L 99.83 131.27 L 102.41 131.25 L 103.02 131.25 L 103.03 131.41 L 103.43 131.99 L 103.73 132.41 L 103.91 132.59 L 104.29 133.15 L 104.26 133.31 L 103.69 133.93 L 103.39 133.84 L 103.39 133.84 L 103.32 133.93 L 103.72 134.35 L 103.49 135.08 L 103.49 135.08 L 103.48 135.52 L 103.48 135.53 L 103.41 135.55 L 103.36 135.59 L 103.17 135.65 L 103.17 135.66 L 103.17 135.66 L 102.79 135.73 L 102.57 135.82 L 102.56 135.82 L 102.41 135.96 L 102.32 136.14 L 102.27 136.25 L 102.25 136.28 L 102.21 136.46 L 102.16 136.67 L 102.17 136.90 L 102.17 136.91 L 102.14 137.14 L 102.12 137.32 L 102.01 137.55 L 101.95 137.68 L 101.78 137.94 L 101.37 138.29 L 101.30 138.35 L 100.97 138.67 L 100.56 139.22 L 100.54 139.26 L 100.47 139.37 L 100.42 139.52 L 100.39 139.32 L 98.76 139.29 L 98.83 138.81 L 98.84 136.66 L 98.31 136.65 L 98.32 136.10 L 97.78 136.10 L 97.70 135.03 L 97.17 135.03 L 97.16 133.97 L 96.65 133.96 L 96.65 133.15 L 96.64 130.75 Z" fill="black" stroke="black" stroke-width="0.5" stroke-linejoin="round"></path>
<path d="M 107.22 7.42 L 107.48 7.42 L 107.57 7.42 L 107.99 7.41 L 108.21 7.42 L 108.28 7.42 L 108.68 7.41 L 108.70 7.42 L 111.23 7.40 L 111.24 7.40 L 111.30 7.41 L 111.30 7.41 L 113.67 7.40 L 113.81 7.39 L 114.35 7.39 L 115.19 7.39 L 116.01 7.39 L 116.56 7.38 L 116.92 7.38 L 117.20 7.38 L 117.48 7.38 L 117.65 7.39 L 117.65 7.39 L 118.18 7.39 L 118.20 7.39 L 118.22 7.38 L 119.34 7.39 L 120.36 7.39 L 120.41 11.73 L 120.42 12.28 L 120.44 16.01 L 116.94 16.02 L 116.93 16.02 L 113.93 16.04 L 113.52 16.04 L 112.28 16.04 L 107.37 16.12 L 107.35 15.04 L 107.33 13.97 L 107.31 12.90 L 107.28 11.30 L 107.25 9.45 L 107.22 7.42 Z" fill="black" stroke="black" stroke-width="0.5" stroke-linejoin="round"></path>
<path d="M 61.90 119.64 L 61.75 119.25 L 62.28 118.49 L 62.30 117.80 L 61.89 117.84 L 62.01 117.40 L 62.39 117.15 L 62.20 116.36 L 62.39 115.93 L 63.14 116.35 L 63.89 115.40 L 64.28 115.56 L 64.36 114.91 L 64.96 115.23 L 65.17 114.87 L 65.12 114.16 L 65.79 113.94 L 65.49 113.49 L 65.87 112.99 L 66.62 112.94 L 66.39 112.81 L 68.19 112.86 L 71.91 112.80 L 71.91 115.53 L 71.91 116.00 L 71.38 116.01 L 71.37 119.95 L 71.35 123.01 L 71.35 127.52 L 70.68 128.07 L 70.44 127.59 L 69.91 127.65 L 69.37 127.24 L 68.48 127.45 L 67.92 127.32 L 67.36 127.62 L 67.14 127.18 L 67.04 127.17 L 66.14 126.33 L 64.94 127.14 L 64.63 126.58 L 63.94 125.93 L 63.42 125.79 L 62.93 126.29 L 62.33 126.06 L 62.02 122.87 L 62.50 122.72 L 62.05 122.31 L 62.42 122.24 L 62.08 122.02 L 61.29 120.66 L 61.90 119.64 Z" fill="black" stroke="black" stroke-width="0.5" stroke-linejoin="round"></path>
<path d="M 120.36 7.39 L 120.98 7.40 L 121.06 7.40 L 122.45 7.39 L 122.62 7.39 L 124.82 7.38 L 124.87 7.39 L 124.87 7.39 L 126.23 7.40 L 126.71 7.41 L 126.75 7.40 L 127.03 7.40 L 127.05 7.40 L 127.06 7.40 L 127.86 7.40 L 127.86 7.40 L 130.90 7.38 L 130.90 7.38 L 131.08 7.38 L 131.45 7.38 L 131.44 8.01 L 131.44 8.21 L 131.45 8.38 L 131.45 8.84 L 131.45 9.32 L 131.44 9.74 L 131.44 10.00 L 131.44 10.54 L 131.46 12.10 L 131.46 12.13 L 131.45 12.81 L 131.48 15.87 L 131.48 15.87 L 128.86 15.92 L 122.41 15.99 L 120.44 16.01 L 120.42 12.28 L 120.41 11.73 L 120.36 7.39 L 120.36 7.39 Z" fill="black" stroke="black" stroke-width="0.5" stroke-linejoin="round"></path>
<path d="M 54.07 76.66 L 54.08 74.31 L 54.08 73.42 L 54.08 73.27 L 54.08 73.17 L 54.09 72.81 L 54.09 72.43 L 54.09 72.35 L 54.09 71.93 L 54.09 71.92 L 54.10 70.18 L 54.11 68.00 L 54.11 67.44 L 54.11 67.08 L 54.11 67.02 L 54.12 66.89 L 54.12 66.88 L 55.28 66.87 L 55.28 67.65 L 57.66 67.64 L 57.64 67.84 L 57.35 70.18 L 56.85 71.38 L 57.07 73.01 L 56.72 73.85 L 57.27 74.10 L 56.91 74.88 L 57.71 75.64 L 58.42 75.90 L 58.73 76.39 L 58.50 77.02 L 59.16 77.44 L 58.80 78.15 L 58.26 78.50 L 58.27 78.99 L 58.57 80.01 L 58.35 82.51 L 58.37 83.67 L 58.13 84.29 L 57.96 85.16 L 58.06 85.75 L 58.37 86.47 L 58.35 86.82 L 54.10 86.85 L 54.09 85.41 L 54.09 85.41 L 54.08 84.72 L 54.08 84.72 L 54.08 84.72 L 54.08 82.29 L 54.07 80.41 L 54.07 79.87 L 54.07 79.59 L 54.07 79.33 L 54.07 76.67 L 54.07 76.66 Z" fill="black" stroke="black" stroke-width="0.5" stroke-linejoin="round"></path>
<path d="M 98.91 93.32 L 98.96 93.17 L 98.95 89.95 L 98.93 89.41 L 98.93 85.70 L 98.94 83.53 L 98.94 83.53 L 100.51 83.48 L 102.14 83.48 L 102.16 83.48 L 107.98 83.48 L 107.99 83.75 L 107.99 85.04 L 107.99 86.17 L 108.05 89.87 L 108.09 92.55 L 108.07 93.07 L 108.05 96.34 L 106.52 96.34 L 101.61 96.37 L 99.21 96.43 L 98.93 96.44 L 98.91 95.90 L 98.91 93.32 Z" fill="black" stroke="black" stroke-width="0.5" stroke-linejoin="round"></path>
<path d="M 106.46 100.10 L 106.52 96.34 L 108.05 96.34 L 108.07 93.07 L 108.09 92.55 L 109.69 92.53 L 110.21 92.56 L 113.41 92.53 L 117.50 92.53 L 117.50 93.07 L 117.53 97.56 L 117.53 99.36 L 116.73 99.90 L 113.60 101.93 L 113.46 102.04 L 112.87 102.42 L 109.87 104.36 L 109.66 104.38 L 106.46 104.43 L 106.45 100.64 L 106.46 100.10 Z" fill="black" stroke="black" stroke-width="0.5" stroke-linejoin="round"></path>
<path d="M 51.89 98.84 L 52.24 98.32 L 52.23 98.21 L 52.16 97.71 L 52.48 96.94 L 52.79 96.70 L 53.47 96.69 L 53.76 96.24 L 54.11 96.42 L 54.11 96.35 L 54.11 95.32 L 54.12 93.14 L 54.12 93.10 L 54.12 92.67 L 54.11 92.05 L 54.11 91.94 L 54.11 91.65 L 54.11 91.65 L 54.11 91.11 L 54.11 90.97 L 54.10 89.81 L 54.10 89.51 L 54.10 89.11 L 54.10 88.44 L 54.10 86.85 L 58.35 86.82 L 60.28 86.81 L 60.92 86.82 L 63.55 86.85 L 63.52 90.07 L 62.42 90.05 L 62.40 92.80 L 62.40 93.18 L 62.38 98.09 L 62.38 99.70 L 59.23 99.69 L 58.16 99.70 L 56.57 99.69 L 52.06 99.69 L 52.01 99.62 L 51.89 98.84 Z" fill="black" stroke="black" stroke-width="0.5" stroke-linejoin="round"></path>
<path d="M 78.12 96.86 L 78.91 97.08 L 79.11 96.13 L 79.67 96.46 L 79.67 96.68 L 81.28 96.72 L 83.58 96.76 L 84.13 96.76 L 84.37 96.77 L 86.75 96.72 L 86.79 99.99 L 87.01 100.47 L 87.01 100.47 L 87.10 105.95 L 87.07 107.48 L 88.54 107.46 L 88.56 109.60 L 87.14 109.60 L 86.93 109.61 L 84.83 109.58 L 82.33 109.56 L 81.43 109.55 L 81.30 109.55 L 78.21 109.54 L 78.21 106.06 L 78.19 103.14 L 78.14 98.87 L 78.12 96.86 Z" fill="black" stroke="black" stroke-width="0.5" stroke-linejoin="round"></path>
<path d="M 67.12 137.59 L 67.14 134.96 L 67.14 127.18 L 67.36 127.62 L 67.92 127.32 L 68.48 127.45 L 69.37 127.24 L 69.91 127.65 L 70.44 127.59 L 70.68 128.07 L 71.35 127.52 L 71.64 127.87 L 72.63 127.91 L 73.62 127.16 L 73.81 126.74 L 75.01 126.76 L 78.21 126.75 L 78.24 131.60 L 78.29 136.46 L 78.30 137.02 L 75.57 136.99 L 75.09 136.98 L 75.11 138.60 L 72.35 138.63 L 70.83 138.68 L 68.70 138.66 L 67.12 138.65 L 67.12 137.59 Z" fill="black" stroke="black" stroke-width="0.5" stroke-linejoin="round"></path>
<path d="M 48.17 130.10 L 48.46 129.83 L 48.48 129.69 L 48.32 129.45 L 48.11 129.23 L 48.10 128.96 L 48.10 128.91 L 48.21 128.64 L 48.46 128.50 L 48.94 128.46 L 49.53 128.16 L 49.95 127.78 L 50.36 127.61 L 50.55 127.45 L 50.64 127.28 L 50.65 127.08 L 50.59 126.94 L 50.45 126.20 L 50.73 125.64 L 50.71 125.20 L 51.10 124.45 L 51.34 124.40 L 51.42 124.36 L 51.49 124.25 L 51.49 124.14 L 51.40 123.83 L 51.54 123.33 L 51.60 122.57 L 52.35 121.54 L 53.72 121.16 L 54.00 121.00 L 54.00 121.00 L 54.12 120.93 L 54.45 120.44 L 54.48 120.23 L 54.54 119.73 L 55.09 118.79 L 55.11 118.76 L 55.04 118.20 L 55.11 117.44 L 54.23 115.98 L 54.39 115.66 L 54.27 114.84 L 54.03 114.71 L 53.58 114.45 L 53.49 114.31 L 53.67 113.85 L 53.76 113.13 L 54.23 112.67 L 54.36 112.87 L 56.48 112.87 L 58.06 112.89 L 59.14 112.89 L 62.36 112.89 L 62.36 112.66 L 65.51 112.68 L 66.39 112.81 L 66.62 112.94 L 65.87 112.99 L 65.49 113.49 L 65.79 113.94 L 65.12 114.16 L 65.17 114.87 L 64.96 115.23 L 64.36 114.91 L 64.28 115.56 L 63.89 115.40 L 63.14 116.35 L 62.39 115.93 L 62.20 116.36 L 62.39 117.15 L 62.01 117.40 L 61.89 117.84 L 62.30 117.80 L 62.28 118.49 L 61.75 119.25 L 61.90 119.64 L 61.29 120.66 L 62.08 122.02 L 62.42 122.24 L 62.05 122.31 L 62.50 122.72 L 62.02 122.87 L 62.33 126.06 L 62.10 126.17 L 61.94 126.74 L 61.35 127.01 L 61.08 127.25 L 60.92 127.31 L 60.65 127.34 L 60.50 127.07 L 60.34 126.94 L 60.17 126.91 L 59.86 126.73 L 59.21 126.16 L 58.70 126.31 L 58.94 126.87 L 58.71 127.27 L 58.31 126.32 L 57.75 126.19 L 57.53 126.74 L 57.11 126.22 L 56.88 126.65 L 56.06 126.48 L 55.75 127.25 L 55.24 127.52 L 55.17 127.92 L 54.62 127.59 L 54.07 127.68 L 54.14 127.16 L 53.88 127.03 L 53.61 127.29 L 53.87 127.98 L 52.92 128.05 L 52.19 129.54 L 51.56 129.58 L 51.13 129.82 L 51.11 129.43 L 50.69 129.60 L 50.56 129.25 L 50.09 129.69 L 50.42 130.09 L 49.33 130.60 L 48.08 130.87 L 48.17 130.10 Z" fill="black" stroke="black" stroke-width="0.5" stroke-linejoin="round"></path>
<path d="M 71.10 9.19 L 71.72 8.65 L 71.77 8.60 L 72.73 8.20 L 72.73 8.20 L 73.81 7.58 L 74.17 7.37 L 74.20 7.37 L 74.75 7.37 L 74.83 7.37 L 74.85 7.37 L 74.85 7.37 L 74.86 7.37 L 75.43 7.38 L 76.34 7.39 L 76.39 7.38 L 77.08 7.39 L 77.72 7.39 L 78.59 7.39 L 79.38 7.40 L 79.41 7.40 L 81.33 7.40 L 82.70 7.40 L 82.69 8.04 L 82.64 10.62 L 82.63 11.43 L 83.74 11.47 L 83.77 13.44 L 83.77 14.38 L 83.52 14.64 L 83.43 15.09 L 83.37 16.21 L 82.68 16.25 L 82.68 19.46 L 81.05 19.46 L 79.34 19.47 L 77.67 20.66 L 76.57 23.56 L 76.39 23.74 L 75.34 24.90 L 74.20 25.39 L 72.88 25.67 L 71.45 26.39 L 71.18 26.70 L 71.16 22.63 L 71.18 19.41 L 71.18 19.34 L 71.19 16.28 L 71.18 15.81 L 71.14 13.83 L 71.12 11.13 L 71.11 10.31 L 71.10 9.19 Z" fill="black" stroke="black" stroke-width="0.5" stroke-linejoin="round"></path>
<path d="M 67.67 96.62 L 70.69 96.63 L 70.83 96.24 L 70.84 95.57 L 70.90 91.79 L 73.70 91.84 L 75.42 91.86 L 77.94 91.89 L 78.11 91.91 L 79.63 91.91 L 79.65 93.37 L 79.67 93.52 L 79.67 96.46 L 79.11 96.13 L 78.91 97.08 L 78.12 96.86 L 78.14 98.87 L 78.19 103.14 L 74.03 103.10 L 71.51 103.06 L 68.42 103.05 L 68.18 103.06 L 67.65 103.06 L 67.67 96.62 Z" fill="black" stroke="black" stroke-width="0.5" stroke-linejoin="round"></path>
<path d="M 71.18 26.70 L 71.45 26.39 L 72.88 25.67 L 74.20 25.39 L 75.34 24.90 L 76.39 23.74 L 76.57 23.56 L 77.67 20.66 L 79.34 19.47 L 81.05 19.46 L 82.68 19.46 L 84.33 19.46 L 84.34 21.60 L 84.34 21.97 L 84.33 24.28 L 84.33 25.33 L 84.32 29.11 L 81.03 29.09 L 80.48 29.09 L 78.44 29.08 L 76.10 29.09 L 75.35 29.11 L 71.18 29.08 L 71.18 26.70 Z" fill="black" stroke="black" stroke-width="0.5" stroke-linejoin="round"></path>
<path d="M 124.95 85.82 L 124.96 82.88 L 124.97 82.34 L 126.81 82.43 L 131.22 82.44 L 131.22 82.44 L 131.20 84.15 L 131.20 84.56 L 131.21 85.05 L 131.20 86.05 L 131.20 86.20 L 131.19 88.28 L 131.19 88.31 L 131.19 88.32 L 131.19 88.36 L 131.19 89.03 L 131.18 90.00 L 127.45 89.91 L 125.30 89.91 L 124.92 89.84 L 124.95 85.82 Z" fill="black" stroke="black" stroke-width="0.5" stroke-linejoin="round"></path>
<path d="M 116.34 28.83 L 117.15 28.82 L 117.16 26.21 L 117.21 25.69 L 120.49 25.68 L 122.11 25.65 L 123.73 25.63 L 125.37 25.60 L 127.00 25.56 L 131.52 25.42 L 131.52 25.43 L 131.52 25.44 L 131.52 26.11 L 131.52 26.12 L 131.52 28.61 L 131.52 29.02 L 131.52 29.04 L 131.52 29.36 L 131.52 29.47 L 131.51 30.25 L 131.53 30.96 L 131.52 31.86 L 131.52 32.14 L 131.52 35.08 L 131.52 35.83 L 131.52 35.84 L 131.53 38.30 L 129.32 38.37 L 126.02 38.44 L 123.85 38.47 L 122.83 38.49 L 120.92 38.52 L 119.60 38.50 L 116.41 38.50 L 116.42 36.90 L 116.43 35.38 L 116.42 35.24 L 116.39 33.26 L 116.38 32.13 L 116.34 29.06 L 116.34 28.83 Z" fill="black" stroke="black" stroke-width="0.5" stroke-linejoin="round"></path>
<path d="M 82.64 10.62 L 82.69 8.04 L 82.70 7.40 L 82.83 7.40 L 83.33 7.40 L 84.65 7.40 L 85.48 7.39 L 87.89 7.38 L 88.95 7.38 L 89.84 7.38 L 89.84 7.38 L 90.04 7.38 L 90.58 7.38 L 90.73 7.38 L 91.15 7.38 L 91.15 7.38 L 91.40 7.38 L 91.40 7.38 L 92.50 7.37 L 93.11 7.37 L 93.94 7.36 L 94.01 7.36 L 94.02 7.36 L 94.49 7.36 L 95.06 7.36 L 95.79 7.36 L 95.81 9.23 L 95.82 9.77 L 95.83 10.32 L 95.83 10.33 L 95.83 10.98 L 95.85 12.98 L 95.85 13.79 L 95.88 16.19 L 95.87 16.37 L 95.88 17.75 L 93.96 17.74 L 93.14 17.75 L 92.32 17.76 L 90.94 17.76 L 88.99 17.83 L 88.21 17.79 L 87.67 17.80 L 85.49 17.84 L 84.32 17.85 L 84.33 19.46 L 82.68 19.46 L 82.68 16.25 L 83.37 16.21 L 83.43 15.09 L 83.52 14.64 L 83.77 14.38 L 83.77 13.44 L 83.74 11.47 L 82.63 11.43 L 82.64 10.62 Z" fill="black" stroke="black" stroke-width="0.5" stroke-linejoin="round"></path>
<path d="M 61.59 148.94 L 62.05 148.30 L 62.62 148.09 L 62.70 147.64 L 62.79 147.22 L 63.63 146.64 L 64.00 145.80 L 64.39 145.69 L 64.86 145.30 L 64.84 144.20 L 65.43 144.16 L 65.65 144.56 L 66.63 144.38 L 66.42 144.08 L 66.66 143.12 L 67.06 142.62 L 67.14 141.81 L 68.68 141.81 L 68.70 141.67 L 68.70 141.13 L 68.70 138.66 L 70.83 138.68 L 72.35 138.63 L 75.11 138.60 L 75.12 139.53 L 74.77 139.48 L 75.00 140.39 L 74.69 140.89 L 75.01 141.61 L 74.67 141.82 L 75.08 141.87 L 75.43 142.43 L 75.76 142.38 L 75.73 142.98 L 75.48 143.39 L 75.80 144.07 L 75.36 144.39 L 75.65 146.24 L 74.94 145.60 L 74.45 146.23 L 74.44 146.22 L 74.30 146.20 L 74.20 146.21 L 73.87 146.41 L 73.48 146.54 L 73.28 146.64 L 73.08 146.82 L 72.97 146.94 L 72.87 147.09 L 72.72 147.25 L 72.56 147.37 L 72.46 147.49 L 72.26 147.80 L 71.96 148.16 L 71.83 148.28 L 71.48 148.51 L 71.25 148.58 L 71.09 148.58 L 70.77 148.63 L 70.20 148.67 L 70.07 148.65 L 69.80 148.75 L 69.79 148.75 L 69.10 149.04 L 68.90 149.14 L 68.25 149.62 L 68.16 149.73 L 68.00 149.93 L 67.92 150.10 L 67.88 150.24 L 67.89 150.32 L 67.94 150.46 L 67.96 150.61 L 67.97 150.79 L 67.95 150.94 L 67.80 151.35 L 67.74 151.58 L 67.63 152.25 L 67.62 152.25 L 67.56 152.54 L 67.34 153.17 L 67.27 153.33 L 67.24 153.38 L 67.19 153.49 L 67.00 153.70 L 67.00 153.70 L 66.62 154.01 L 66.36 154.12 L 66.08 154.19 L 66.08 154.19 L 66.04 154.20 L 65.81 154.19 L 65.71 154.16 L 65.58 154.11 L 65.52 154.05 L 65.42 153.85 L 65.29 153.29 L 65.17 152.96 L 65.12 152.86 L 64.84 152.36 L 64.69 152.16 L 64.59 152.08 L 64.52 152.04 L 64.35 152.00 L 64.09 152.03 L 63.46 151.94 L 63.17 151.85 L 62.93 151.74 L 61.95 151.07 L 61.74 150.87 L 61.57 150.65 L 61.59 148.94 Z" fill="black" stroke="black" stroke-width="0.5" stroke-linejoin="round"></path>
<path d="M 88.26 77.54 L 88.34 77.29 L 88.32 76.70 L 88.31 75.23 L 88.31 75.15 L 88.45 75.15 L 89.67 75.13 L 89.96 75.12 L 90.74 75.08 L 91.81 75.06 L 92.35 75.05 L 92.89 75.05 L 93.08 75.04 L 93.43 75.04 L 94.38 75.05 L 95.41 75.05 L 95.59 75.05 L 95.69 75.04 L 96.73 75.04 L 96.82 75.04 L 97.39 75.04 L 97.71 75.04 L 98.27 75.05 L 98.42 75.05 L 99.34 75.04 L 99.33 75.56 L 99.33 76.36 L 99.33 76.51 L 99.33 77.16 L 98.87 77.16 L 98.88 77.66 L 98.90 78.74 L 98.90 78.85 L 98.90 79.29 L 98.91 79.83 L 98.92 80.37 L 98.92 80.77 L 98.93 81.37 L 98.94 81.91 L 98.94 82.45 L 98.94 83.53 L 98.94 83.53 L 98.93 85.70 L 97.04 85.74 L 96.30 85.74 L 95.76 85.76 L 95.46 85.76 L 95.22 85.77 L 94.41 85.80 L 93.97 85.81 L 93.61 85.81 L 93.61 85.81 L 93.08 85.82 L 92.53 85.83 L 92.00 85.85 L 91.73 85.85 L 90.67 85.87 L 90.48 85.87 L 90.42 85.88 L 88.85 85.91 L 88.31 85.93 L 88.30 84.10 L 88.30 83.92 L 88.30 82.69 L 88.31 82.34 L 88.30 82.15 L 88.30 81.22 L 88.30 81.07 L 88.30 80.52 L 88.30 79.98 L 88.30 79.71 L 88.28 78.89 L 88.28 78.60 L 88.27 77.81 L 88.26 77.54 Z" fill="black" stroke="black" stroke-width="0.5" stroke-linejoin="round"></path>
<path d="M 62.88 12.40 L 62.94 12.39 L 63.44 12.28 L 63.87 12.20 L 63.99 12.15 L 64.64 11.91 L 64.63 11.61 L 65.09 11.53 L 65.63 11.43 L 65.78 11.60 L 65.78 11.60 L 67.28 11.02 L 67.32 11.01 L 68.40 10.53 L 68.92 10.28 L 71.05 9.24 L 71.10 9.19 L 71.11 10.31 L 71.12 11.13 L 71.14 13.83 L 71.18 15.81 L 71.19 16.28 L 71.18 19.34 L 71.18 19.41 L 71.16 22.63 L 71.18 26.70 L 70.10 27.33 L 67.50 25.49 L 67.12 25.35 L 66.29 25.07 L 65.47 24.87 L 64.67 25.24 L 63.73 25.65 L 62.99 26.50 L 62.95 23.13 L 62.96 22.62 L 62.96 20.87 L 62.96 19.40 L 62.96 18.06 L 62.95 16.72 L 62.94 16.18 L 62.93 16.06 L 62.91 15.11 L 62.90 14.58 L 62.89 13.68 L 62.89 13.51 L 62.88 12.91 L 62.88 12.40 Z" fill="black" stroke="black" stroke-width="0.5" stroke-linejoin="round"></path>
<path d="M 77.83 65.76 L 80.03 65.75 L 81.08 65.79 L 85.32 65.82 L 90.69 65.68 L 90.71 68.66 L 90.72 69.74 L 90.73 72.40 L 90.73 73.20 L 90.73 73.73 L 90.73 74.54 L 90.74 75.08 L 89.96 75.12 L 89.67 75.13 L 88.45 75.15 L 88.31 75.15 L 88.17 75.15 L 87.49 75.15 L 86.28 75.16 L 85.34 75.17 L 83.21 75.20 L 77.85 75.20 L 77.84 72.86 L 77.83 71.96 L 77.83 65.76 Z" fill="black" stroke="black" stroke-width="0.5" stroke-linejoin="round"></path>
<path d="M 81.10 41.90 L 81.07 38.73 L 84.16 38.77 L 84.28 38.76 L 84.28 38.76 L 87.47 38.78 L 88.65 38.78 L 92.77 38.77 L 92.81 41.73 L 92.80 42.22 L 92.78 44.83 L 92.87 44.93 L 92.84 47.31 L 92.86 48.37 L 92.88 48.94 L 92.89 51.58 L 91.27 51.60 L 87.73 51.63 L 86.95 51.63 L 86.97 48.40 L 86.97 46.79 L 82.67 46.79 L 82.67 45.88 L 82.67 45.20 L 81.06 45.19 L 81.10 41.90 Z" fill="black" stroke="black" stroke-width="0.5" stroke-linejoin="round"></path>
<path d="M 84.28 38.76 L 84.31 32.33 L 84.32 29.11 L 87.73 29.09 L 90.74 29.08 L 91.07 29.10 L 95.37 29.06 L 95.41 32.30 L 97.05 32.26 L 97.04 33.89 L 99.11 33.85 L 99.12 35.29 L 99.09 35.47 L 93.34 35.58 L 92.79 35.58 L 92.77 38.77 L 88.65 38.78 L 87.47 38.78 L 84.28 38.76 L 84.28 38.76 Z" fill="black" stroke="black" stroke-width="0.5" stroke-linejoin="round"></path>
<path d="M 49.35 147.97 L 49.38 145.87 L 49.38 145.62 L 49.40 144.57 L 49.41 143.21 L 49.43 141.57 L 49.65 141.57 L 49.66 139.96 L 52.27 139.99 L 54.14 140.02 L 55.94 140.07 L 55.92 141.14 L 55.80 141.68 L 55.79 143.29 L 55.77 144.72 L 55.84 144.88 L 56.43 144.88 L 56.44 146.03 L 56.43 147.04 L 56.41 147.74 L 56.41 148.10 L 56.39 148.35 L 55.99 148.62 L 55.87 148.72 L 55.55 148.99 L 55.40 149.12 L 55.28 149.25 L 54.98 149.53 L 54.80 149.62 L 54.68 149.63 L 54.43 149.40 L 54.11 149.26 L 53.71 149.03 L 53.55 148.93 L 53.33 148.72 L 53.14 148.47 L 53.07 148.34 L 52.97 148.11 L 52.94 148.02 L 52.90 147.84 L 52.93 147.55 L 52.89 147.38 L 52.89 147.37 L 52.80 147.23 L 52.71 147.16 L 52.57 147.08 L 52.52 147.07 L 52.46 147.06 L 52.37 147.07 L 52.27 147.10 L 52.21 147.14 L 52.13 147.19 L 52.06 147.32 L 52.04 147.39 L 52.02 147.46 L 52.02 147.60 L 52.07 147.69 L 52.00 148.03 L 51.87 148.22 L 51.62 148.44 L 51.45 148.63 L 51.35 148.88 L 51.37 149.07 L 51.43 149.27 L 51.51 149.47 L 51.60 149.61 L 51.93 149.91 L 52.12 150.02 L 52.25 150.15 L 52.41 150.34 L 52.42 150.39 L 52.50 151.02 L 52.49 151.31 L 52.45 151.39 L 52.41 151.47 L 52.18 151.82 L 51.98 152.13 L 51.97 152.15 L 51.82 152.31 L 51.75 152.37 L 51.74 152.38 L 51.46 152.48 L 51.16 152.56 L 51.11 152.57 L 50.87 152.60 L 50.61 152.60 L 50.28 152.54 L 50.12 152.48 L 50.03 152.39 L 49.93 152.22 L 49.88 152.06 L 49.85 151.84 L 49.86 151.49 L 50.03 151.12 L 50.10 151.03 L 50.22 150.92 L 50.29 150.82 L 50.35 150.71 L 50.39 150.55 L 50.39 150.40 L 50.33 150.11 L 50.29 150.02 L 50.14 149.88 L 50.02 149.79 L 49.89 149.75 L 49.79 149.74 L 49.67 149.77 L 49.31 149.96 L 49.35 147.97 Z" fill="black" stroke="black" stroke-width="0.5" stroke-linejoin="round"></path>
</svg>